<svg xmlns="http://www.w3.org/2000/svg" width="55.734" height="55.735" viewBox="0 0 55.734 55.735"><defs><style>.a{fill:#25addc;}</style></defs><path class="a" d="M1766.411,485.554a6.737,6.737,0,0,0-6.729-6.729h-16.1a6.737,6.737,0,0,0-6.729,6.729v16.1a6.736,6.736,0,0,0,6.729,6.729h16.1a6.736,6.736,0,0,0,6.729-6.729h0Zm-14.781,17.312a9.26,9.26,0,1,1,9.26-9.26A9.271,9.271,0,0,1,1751.631,502.866Zm11.3-17.232a2.341,2.341,0,1,1,.684-1.654A2.362,2.362,0,0,1,1762.934,485.634Z" transform="translate(-1723.763 -465.738)"/><path class="a" d="M1728.984,443.092a27.867,27.867,0,1,0,27.867,27.867A27.867,27.867,0,0,0,1728.984,443.092Zm17.969,35.919a9.929,9.929,0,0,1-9.918,9.918h-16.1a9.929,9.929,0,0,1-9.918-9.918v-16.1a9.929,9.929,0,0,1,9.918-9.918h16.1a9.929,9.929,0,0,1,9.918,9.918Z" transform="translate(-1701.117 -443.092)"/><path class="a" d="M1766.7,502.6a6.072,6.072,0,1,0,6.072,6.072A6.079,6.079,0,0,0,1766.7,502.6Z" transform="translate(-1738.834 -480.809)"/></svg>