<svg xmlns="http://www.w3.org/2000/svg" width="55.381" height="55.381" viewBox="0 0 55.381 55.381"><defs><style>.a{fill:#25addc;}</style></defs><path class="a" d="M27.69,0a27.69,27.69,0,1,0,27.69,27.69A27.693,27.693,0,0,0,27.69,0ZM40.333,21.59q.018.409.018.821c0,8.4-6.393,18.083-18.083,18.083h0a17.99,17.99,0,0,1-9.742-2.855,12.927,12.927,0,0,0,1.516.088,12.753,12.753,0,0,0,7.894-2.721A6.363,6.363,0,0,1,16,30.593a6.335,6.335,0,0,0,2.871-.109,6.357,6.357,0,0,1-5.1-6.23c0-.029,0-.055,0-.081a6.312,6.312,0,0,0,2.879.795,6.361,6.361,0,0,1-1.968-8.485,18.045,18.045,0,0,0,13.1,6.641,6.359,6.359,0,0,1,10.83-5.8,12.748,12.748,0,0,0,4.036-1.543A6.381,6.381,0,0,1,39.854,19.3a12.676,12.676,0,0,0,3.65-1A12.916,12.916,0,0,1,40.333,21.59Zm0,0"/></svg>