<svg xmlns="http://www.w3.org/2000/svg" xmlns:xlink="http://www.w3.org/1999/xlink" width="56.023" height="56.023" viewBox="0 0 56.023 56.023"><defs><style>.a{fill:none;}.b{clip-path:url(#a);}.c{fill:#25addc;}</style><clipPath id="a"><rect class="a" width="56.023" height="56.023"/></clipPath></defs><g class="b"><path class="c" d="M216.6,200.3l8.12-5.342L216.6,189.6Z" transform="translate(-190.999 -167.191)"/><path class="c" d="M28.012,0A28.012,28.012,0,1,0,56.023,28.012,28.01,28.01,0,0,0,28.012,0ZM42.668,22.6V33.992a4.25,4.25,0,0,1-4.243,4.255H18.485a4.25,4.25,0,0,1-4.243-4.255V22.6a4.25,4.25,0,0,1,4.243-4.255H38.413A4.267,4.267,0,0,1,42.668,22.6Z"/></g></svg>