<svg xmlns="http://www.w3.org/2000/svg" width="845" height="490" viewBox="0 0 845 490"><defs><style>.a{fill:#29aedd;}</style></defs><path class="a" d="M-1313,609h-845V119h845v.243a245.623,245.623,0,0,0-47.439,6.769,243.823,243.823,0,0,0-44.056,15.39,245.349,245.349,0,0,0-39.765,23.1,246.9,246.9,0,0,0-34.569,29.912,246.667,246.667,0,0,0-28.465,35.812,244.929,244.929,0,0,0-21.455,40.806,243.8,243.8,0,0,0-13.538,44.893A246.918,246.918,0,0,0-1547,364a246.921,246.921,0,0,0,4.714,48.073,243.812,243.812,0,0,0,13.538,44.893,244.943,244.943,0,0,0,21.455,40.806,246.681,246.681,0,0,0,28.465,35.812,246.893,246.893,0,0,0,34.569,29.912,245.344,245.344,0,0,0,39.765,23.1,243.822,243.822,0,0,0,44.056,15.39A245.627,245.627,0,0,0-1313,608.758V609Z" transform="translate(2158 -119)"/></svg>