<?xml version="1.0" encoding="utf-8"?>
<!-- Generator: Adobe Illustrator 23.0.2, SVG Export Plug-In . SVG Version: 6.00 Build 0)  -->
<svg version="1.1" id="Camada_1" xmlns="http://www.w3.org/2000/svg" xmlns:xlink="http://www.w3.org/1999/xlink" x="0px" y="0px"
	 viewBox="0 0 189 296" style="enable-background:new 0 0 189 296;" xml:space="preserve">
<style type="text/css">
	.st0{enable-background:new    ;}
</style>
<g transform="translate(-340 -1616)">
	<g class="st0">
		<path d="M421.1,1636.5c1.4,2,1.4,3.5,0.2,5.5c-1.9,3-6.5,7.8-8.9,9.1c-0.7,0.4-1.4,0.5-1.6,0.3c-0.3-0.4-2.9-0.5-3-1.8
			c0-0.2-0.1-0.5-0.2-0.5c-0.6-0.4,0.5-1.1,0.9-1c0.3,0.2,1.7-0.5,2.7-1.4c1.7-1.5,5.2-5.2,6.4-7c1.7-2.5,1.5-2.6-1.6-1.2
			c-6.2,2.8-12,7-14.9,10.8c-0.8,1.1-0.9,1,0-0.2c2.2-3.1,6.6-6.6,12.5-9.6c1-0.5,1.9-1,1.9-1c0.2-0.2-1.8,0.8-3.3,1.5
			c-5.6,2.9-10,6.5-11.8,9.5c-2.6,4.3-0.6,5.2,2,7.2c3.7,2.9,5.3,4.5,7,6.8c0.7,1,1.1,1.5,1.3,1.5c0.2,0,0.2,0.1,0.1,0.2
			c-0.3,0.3,0,0.5,0.3,0.4c0.3-0.2,0.5-0.1,0.4,0.1c-0.1,0.2-0.5,0.6,0.1,0.4c0.8-0.3,0.5,0.3,0.2,0.6c-0.9,0.9,1.2-0.4,0.2,0.4
			c-0.4,0.4-0.4,0.5-0.2,1.6c0.3,1.2,0.3,2.4,0,3.9c-0.4,2.4-1,3.8-2.4,6c-1.9,3.1-5.2,6.2-8.4,8.2c-0.8,0.5-1.4,0.9-1.4,0.9
			c0,0.1,1.5-0.8,2.6-1.5c2.6-1.7,4.5-3.5,6.4-5.9c1.2-1.5,1.5-1.7,0.5-0.4c-3.2,4.5-7.7,7.7-13.5,9.4c-3.1,0.9-5.2,0.8-7.3-0.2
			c-1.7-0.8-1.8-0.9-2.5-2.3c-0.6-1.1-0.7-1.9-0.3-3.1c0.7-2.2,3.1-5,6.5-7.5c3.2-2.4,11.3-7.5,14.2-8.9c0.4-0.2,0.6-0.4,0.6-0.5
			c0.1-0.7-1.2-2.6-2.7-4.1c-0.5-0.5-2-1.8-3.2-2.8c-2.9-2.3-3.6-3.1-4.5-4.5c-1.4-2.1-2.2-4.5-1-7.2c1.4-3,5.4-7,9.8-10
			c3.8-2.5,8.4-4.4,11.3-4.6c1.6-0.1,2,0.4,2.9,1C419.9,1634.8,420.3,1635.2,421.1,1636.5z M405,1668.5c-5,2.8-11.2,6.9-14.1,9.4
			c-2.1,1.8-3.5,3.4-4.1,4.8c-0.2,0.4,0,0.3,0.6-0.5c3-3.5,5.3-5.5,10.9-9.2c2.1-1.4,6.4-4,7.7-4.7c0.4-0.2,1.1-0.8,0.9-0.8
			C406.8,1667.5,406.4,1667.8,405,1668.5z M388.8,1681.9c-0.3,0.3-0.9,1.3-0.9,1.5c0,0,3.3-3.9,3.3-3.9
			C390.1,1680.1,389.7,1680.9,388.8,1681.9z M397.3,1675.7c-2.9,2-5.9,4.5-7.6,6.8c-0.5,0.6-1.2,1.7-1.2,1.9c0,0,0.9-1.1,1.2-1.5
			c2.3-3.1,7.4-7.1,14.9-11.8c1.1-0.7,2.1-1.3,2.1-1.3c0,0,0-0.1,0-0.1C406.5,1669.6,400.5,1673.5,397.3,1675.7z M404.7,1671.4
			c-10,6.3-15.3,11-15.9,14c-0.2,1.2-0.2,1.3,1.4,1.1c1.5-0.1,3.2-0.8,5-1.7c5.3-2.9,9.5-7.7,11.1-12.7c0.3-0.8,0.3-1.2,0.4-1.9
			L404.7,1671.4z M400.3,1682.5c-0.7,0.6-1.8,1.4-2.7,2c-0.8,0.5-1.5,1-1.5,1.1c-0.2,0.2,1.2-0.4,2.4-1.2c1.7-1,3.5-2.6,4.8-4.3
			c1.2-1.5,0.8-1.1,1.6-2.5c0.8-1.3,0.2-0.6-0.6,0.5C402.4,1680.7,401.6,1681.3,400.3,1682.5z M399.9,1643.9
			c-0.8,0.8-0.9,0.9-0.9,0.9c0.3-0.4,1.7-1.8,2-2c0.2-0.1,0.3-0.3,0.4-0.4c0.2-0.4-1.3,1-2.1,1.9c-0.7,0.8-2.3,3.1-1.8,2.6
			c0.2-0.1,0.8-0.8,1.5-1.5c2.9-2.9,7.4-6.3,11.1-8.3c0.9-0.5,1.6-0.9,1.6-1c-0.1-0.2-1.8,0.7-3.4,1.5
			C405.3,1639.2,402.5,1641.3,399.9,1643.9z M403.5,1643.1c-1.9,1.5-3.7,3.3-4.3,4.3c-0.3,0.5-0.4,0.8-0.2,0.5
			c0.1-0.1,0.6-0.7,1.2-1.3c1-1.1,1.6-1.6,3.6-3.5l1-0.9L403.5,1643.1z M408.9,1640.9c-3.6,2.3-6.6,4.9-8.4,7.3
			c-0.9,1.2-0.8,1.2,0.2,0c2.7-3.1,6.1-5.8,9.6-8c0.3-0.2,0.3-0.2,0.1-0.2C410.4,1640,409.7,1640.4,408.9,1640.9z M403.2,1684.2
			c-1.5,1.2-1.7,1.5-1.1,1.1c1.2-0.7,3-2.2,3.9-3.2c0.8-0.9,2.2-2.7,2.3-2.9c0,0-0.5,0.5-1,1.1
			C405.8,1682,405.3,1682.5,403.2,1684.2z M406.6,1678.7c-1.1,1.2-2.9,3.2-3.4,3.7c-1.1,1.1-0.4,0.6,0.5-0.2
			C404.3,1681.5,406.6,1679.3,406.6,1678.7C406.6,1678.7,406.6,1678.7,406.6,1678.7z M409.7,1648.9c0.9,0.2,1.6-0.5,2.3-1
			c1.2-0.9,5.1-5.2,5.1-5.5c0,0,1.6-2.2,1.5-2.3C416.7,1642.5,412.5,1647.2,409.7,1648.9z M412.7,1650.1c-0.5,0.3-0.4,0.4,0.2,0.1
			c1.2-0.6,5.4-4.7,6.7-6.6c0.6-0.9,0.3-0.5-0.3,0.2C417.6,1646,414.3,1649.1,412.7,1650.1z M419.9,1641c0,0-3.8,4.4-4.1,4.7
			c-1.1,1.3-2.3,2-3.2,3.2c0,0.2,1.4-1.1,2.8-2.4c1.7-1.7,3.1-3.3,3.9-4.5C419.6,1641.4,419.9,1641,419.9,1641z M419,1645.8
			c-2,2.3-5,5-6.2,5.4c-0.2,0.1-0.2,0-0.2,0c0.1-0.1,0.5-0.3,0.9-0.6c1.3-0.8,3.5-2.9,5.3-4.8c0.7-0.8,1.1-1.2,1.2-1.2
			C420,1644.6,419.7,1645,419,1645.8z"/>
		<path d="M423.7,1663.4c0.2,0,0.8,0.1,1.1,0.2c3.5,0.5,4.9,3,3.6,7c-0.8,2.5-1.8,4.4-3.1,6c-0.8,0.9-1.1,1.1-2.5,1.3
			c-1.1,0.2-2.6,0.1-3.4-0.3c-0.2-0.1-0.4,0.5-1,2.9c-0.2,0.8-0.4,1.3-0.4,1.3c0-0.3,0.5-2.5,0.7-3.5c0.2-0.7,0.2-1.3,0-1.2
			c-0.3,0.2-1.2,4.4-1.1,5.8c0,0.6,0.1,1.3,0.2,1.5c0.2,0.4,0.2,0.4,0.6,0.4c3.4-0.6,12.4-10.8,12.5-10.7c0.1,0.1-0.2,0.5-1.4,1.9
			c-1.4,1.7-2.4,2.8-4.2,4.5c-0.8,0.8-1.5,1.5-1.7,1.6c-0.2,0.2-0.2,0.2,0.1,0c0.7-0.5,4-3.7,5.2-5.1c1.9-2.2,2.6-2.9,2.5-2.7
			c-0.5,1.5,0.5-0.3,0.5,0.3c0,0.4-2.3,3.4-4.4,5.8l-1.2,1.3l1-1c1.1-1.1,2.1-2.2,3.7-4.3c1.1-1.4,1.5-1.8,0.7-0.7
			c-2.5,3.5-6.1,7.4-8.6,9.6c-1.2,1-1.5,1.2-2.7,1.7c-0.9,0.3-1.1,0.3-2.9,0.2c-1.4-0.1-2.1-0.5-3.2-1.7c-2.9-3.3-1.8-8,0.2-12.5
			c1.2-2.7,2.9-5.2,4.8-7.3C421.1,1664.1,422.4,1663.1,423.7,1663.4z M417.6,1670.1c-0.6,1-1.5,2.7-2.1,4.3
			c-0.3,0.8-0.6,1.3-0.6,1.3c0,0,0.2-0.6,0.5-1.4c0.8-1.8,0.9-2.1,0.8-2.1c-0.2,0-1.3,2.9-1.4,3.4c-0.1,0.5-0.4,1.8-0.5,2.3
			c-0.1,0.3,0,0.3,0.2-0.3c0.1-0.4,0.7-1.7,1.2-2.8c1.3-2.8,2.4-4.6,4.8-8.1c0.3-0.5,0.6-0.9,0.5-0.9
			C420.7,1666,418.6,1668.5,417.6,1670.1z M418.1,1673.1c-0.8,1.5-1.6,3.5-1.8,4.5c-0.2,0.9-0.3,1.5-0.1,0.9
			c0.4-1.3,1.5-3.9,2.1-5.3C419.1,1671.3,418.9,1671.4,418.1,1673.1z M418.3,1676.6c-0.2,0.4-0.6,2.1-0.7,2.6c0,0.2,0.1-0.2,0.4-1
			c0.3-0.8,0.5-1.6,0.4-1.7C418.4,1676.2,418.4,1676.3,418.3,1676.6z M420.8,1671.1c-1.2,2.1-2.2,4.2-1.9,4.2c0,0,0.4-0.7,0.7-1.5
			c0.8-1.7,1.3-2.6,2.5-4.5c0.5-0.8,0.9-1.5,0.9-1.5C423,1667.8,421.5,1669.9,420.8,1671.1z M424.1,1667.8c-1.1,1.3-3.2,4.6-4.1,6.6
			c-0.4,0.9-0.4,1.1-0.2,1.1c0,0,0.4-0.6,0.8-1.4c1-2,2.4-4.4,3.6-6.1c0.4-0.5,0.5-0.8,0.5-0.8
			C424.6,1667.2,424.4,1667.4,424.1,1667.8z M420.9,1673.9c-0.4,0.8-0.7,1.6-0.7,1.7c0,0.2,0.5,0.2,1.1,0c1.4-0.5,2.5-2.1,4-5.9
			c0.5-1.4,1.2-3.4,0.8-3.4C425.4,1666.4,422.4,1670.7,420.9,1673.9z M423.4,1674.8c-0.3,0.4-0.4,0.7-0.4,0.7c0,0,0.2-0.1,0.4-0.2
			c0.8-0.6,2.2-3.1,3.1-5.8c0.2-0.5,0.3-1.6,0.2-1.7C426.7,1667.8,425.1,1672.3,423.4,1674.8z M427.9,1670.9c-0.5,1.5-1.2,3-2.3,4.5
			c-0.2,0.3-0.4,0.6-0.4,0.6c0,0.2,0.5-0.3,0.9-0.9c0.8-1.2,2-3.7,2.2-5.1c0,0,0-0.1,0-0.1C428.2,1670,428.1,1670.3,427.9,1670.9z
			 M427.2,1669.7c-0.4,1-0.7,2-1.1,2.9c-0.3,0.7-0.6,1.3-0.8,1.5c-0.1-0.1-0.1,0,0,0.1c0.1,0.2,0.3-0.1,0.9-1.1
			c0.5-1,1.5-3.7,1.6-4.4c0-0.1,0-0.2,0-0.2C427.6,1668.6,427.4,1668.9,427.2,1669.7z"/>
		<path d="M438,1677.2c0.5,0,8.9-7,9.8-8.1c0.1-0.1,0.3-0.2,0.4-0.2c0.4,0-0.3,0.8-2.3,2.7c-2,1.9-5,4.3-7,5.9
			c-1,0.7-1.4,1.1-1.2,1.3c0.1,0.1,3.7-2.7,5.9-4.5c0.7-0.6,5.6-5,5.7-5c0,0-0.1,0.4-0.4,0.8l-0.4,0.7l0.6-0.6
			c0.6-0.6,0.9-0.7,0.8-0.3c0,0.4-0.5,1-1.9,2.4c-1.6,1.6-3.2,3.1-6.4,5.5c-1.3,1-2.4,1.9-2.5,2c-0.8,0.8,4.7-3.4,6.7-5.1
			c1.3-1.2,3.4-3.2,4.1-4.1c0.2-0.3,0.4-0.4,0.4-0.4c0,0.2-1,1.4-2.4,2.8c-1.9,1.9-5.2,4.6-9.9,8.1c-2.5,1.9-2.2,1.7-3.7,4.8
			c-1.4,3-3.5,6.9-4.9,9c-1.2,1.7-2.5,3.5-2.6,3.5c-0.1,0,0-0.1,0.9-1.3c2.1-2.8,4.3-6.7,6.5-11.3c1.5-3.1,0.7-2.7-0.3-0.5
			c-0.6,1.4-0.9,1.8-1.6,3.3c-3.3,6.9-8.7,14-12.1,16c-1.2,0.7-3,1.3-4.9,1.3c-0.8,0-1.6-0.1-1.8-0.1c-0.4-0.2-1.3-0.9-1.7-1.4
			c-0.5-0.6-0.7-1.6-0.5-2.6c0.5-3.6,4.1-7.5,14-15.2l3.1-2.4l1-2.4c1.3-3.4,1.2-3,3.6-9.9c1.2-3.4,2.2-6.5,2.3-6.8
			c0.2-0.6,1-1.5,1.5-1.5c1,0,1.9,0.8,2.6,1.2c0.3,0.1,0.2,1.5,0.5,1c0.6-0.8,0.3,2-0.6,5c-0.5,1.9-1.7,5.4-2.2,7
			C437.4,1677.7,437.9,1677.2,438,1677.2z M427.3,1685.9c-1,0.6-8,6.3-10,8.1c-3.3,3.1-5.2,5.7-5.3,7.4c-0.1,0.7,0.2,0.5,0.6-0.5
			c1-2.5,2.7-4.6,6.3-7.9c2.1-1.9,3.7-3.3,6.6-5.5c1.2-1,2.1-1.7,2-1.7C427.5,1685.8,427.5,1685.8,427.3,1685.9z M413.1,1701.7
			c0,0.4,0.2,0.1,0.4-0.5c0.1-0.2,1.1-2.4,1-2.4C414.3,1698.5,413.2,1701.1,413.1,1701.7z M419.2,1694.7c-3,2.6-4.6,4.9-5.1,6.9
			c-0.2,0.8-0.1,0.7,0.3-0.2c0.8-2.1,2.2-3.9,4.9-6.5c1-1,1.8-1.7,1.8-1.7C421.1,1693.1,420.2,1693.8,419.2,1694.7z M425,1690.5
			c-0.7,0.4-3.8,2.9-5.8,4.7c-3.3,3.1-5,6-4.7,7.8c0.1,0.6,0.1,0.6,0.5,0.5c0.2,0,0.8-0.4,1.3-0.7c1.4-1,3.2-2.9,4.8-5.1
			c1.6-2.4,4.1-6.6,4.1-7.1C425.3,1690.3,425.1,1690.4,425,1690.5z M427.3,1689.3c-0.1-0.1-0.5,0.6-1.6,2.8c-1.2,2.5-3.5,6-5.4,8.2
			c-2.2,2.7,0,0.6,0.9-0.4c0.6-0.7,1.5-1.9,2-2.6c2.2-3.1,5.3-8.9,4.8-9C427.8,1688.3,427.4,1689.4,427.3,1689.3z M432,1687.5
			c-2,4-4,7.4-6.2,10.4c-0.5,0.6-0.9,1.3-1,1.4c-0.3,0.5,0.7-0.7,1.7-2c1.9-2.5,3.8-5.7,5.6-9.2c1-2.1,1.6-3.4,1.4-3.4
			C433.4,1684.6,433.3,1685,432,1687.5z M430.2,1687.6c-0.4,0.9-2.5,5.1-2.5,5.1c0.1-0.1,0.5-0.7,0.8-1.4c1.3-2.4,2.5-4.6,2.5-5
			C431,1686.2,430.3,1687.3,430.2,1687.6z M430.2,1682.7c-0.1,1,1.2-2.3,1.1-2.4C431.2,1680.2,430.2,1682.4,430.2,1682.7z
			 M439,1653.4c0,0.3,0,0.3,0.3-0.2c0.3-0.6,0.5-0.7,1.1-0.5c3.5,1.1,3.4,3.6,1.6,7.1c-0.3,0.6-0.6,0.9-0.9,1.1
			c-0.4,0.2-0.4,0.2-0.3-0.1c0.1-0.2,0.3-0.5,0.5-0.8c0.5-0.7,1-1.6,1.1-2.3c0.2-0.8,0.1-0.7-0.5,0.7c-0.6,1.3-0.7,1.2-1.3,2.1
			c-0.2,0.3-0.5,0.5-0.7,0.5c-0.7,0.1-0.1-0.8,0.3-1.9c0.7-1.8,0.9-2.5,0.7-2.4c-0.2,0.1-0.3-0.4-0.2,0.1c0,0.2-1.1,3.4-2.2,4.6
			c-0.3,0-0.4-0.5-0.6-0.9c-0.1-0.4-0.2-0.4-0.2-0.2c0,0.5-0.3,0.5-0.6,0c-0.7-1.3,0.4-4.2,0.5-5.7c0.1-1.1,0.1-1.4,0.4-1.7
			c0.2-0.2,0.4-0.4,0.5-0.4C438.7,1652.4,438.9,1652.9,439,1653.4z M438.4,1656.6c-0.5,1.3-0.9,4.1,0,1.9c0.5-1.1,0.4-1.7,0.3-2.8
			L438.4,1656.6z"/>
		<path d="M459.8,1664.9c0.8,0.7,1.4,0,2.4,0.6c0.7,0.4-0.6,1.9-0.4,2.1c0,0,0.1,0,0.1-0.1s0.1-0.2,0.2-0.4c0.2-0.3,0,0.3-1,2.4
			c-1.7,3.8-2.4,5.8-3,8.2c-0.4,1.5-0.3,1.9,0.1,0.6c1.1-3.7,2.5-7.4,3.8-10.2c1.1-2.4,1.1-2.3,1.3-2.3c0.8,0.1,0.8,0.5,1.1,0.9
			c0.1,0.2,0.1,0.8-0.2,1.7c-0.2,0.5-0.7,1.8-1.1,2.8c-2.9,7.2-3.8,10.6-3.3,12.4c0.2,0.6,0.3,0.6,1.2,0.1c1.5-0.8,3.5-2.7,6.5-6.4
			c1.8-2.1,2.5-2.9,3.7-4.4c0.5-0.6,0.7-0.5,0.3,0.1c-0.7,0.9-7.9,9.6-7.9,9.6c0.3,0,2.5-2.4,4.1-4.3c1.6-2,2.7-3.2,4-4.9
			c0.7-0.9,0.9-0.9,0.5,0c-0.3,0.7-0.3,0.6,0.3-0.1c0.4-0.6,0.6-0.7,0.6-0.4c0,0.5-3.7,5.5-6.3,8.6c-0.9,1-1.2,1.5-0.7,1.1
			c0.4-0.4,2.1-2.4,3.9-4.7c4.1-5.3,1.8-2.1,0.2,0c-1.8,2.4-3.7,5.1-6.8,7.2c-0.3,0.3,1.3-0.8,1.7-1.1c-0.6,0.7-1.4,1.4-2.5,1.7
			c-0.4,0.1-0.8,0.3-0.9,0.4c-0.3,0.1-2.8,0.2-3.3,0.1c-0.9-0.2-2.4-1.6-2.9-2.7c-0.3-0.8-0.8-2.9-0.6-3.3c0.1-0.4-0.3,0.2-1.4,1.9
			c-1.2,2-1.5,2.3-2.6,2.9c-1,0.5-2.1,0.5-3.4,0.6c-0.8,0.1-0.9,0.1-1.6-0.4c-2.4-1.6-2.9-3.7-1.9-8.2c0.6-2.5,1.3-4.2,2.7-6.6
			c2-3.3,4.2-5.6,6.6-6.7C455.4,1662.8,458.6,1663.8,459.8,1664.9z M448.5,1670.1c-1,1.5-2.1,3.6-2.4,4.6c-0.1,0.4-0.3,0.7-0.3,0.7
			c-0.3-0.2-0.9,2.1-1,3.7c0,0.7,0,1.1,0,1.1c1-3.6,2.1-6.7,4-10C450.1,1668.1,450.1,1667.7,448.5,1670.1z M447.8,1675.4
			c-0.6,1.6-1.2,3.7-1.2,4.6c-0.1,1.1,0,1,0.4-0.9c0.2-0.8,0.5-2.1,0.8-2.9C448.1,1674.8,448.2,1674.1,447.8,1675.4z M449.2,1676
			c-0.6,1.8-0.9,2.9-1.2,5.3c-0.1,0.9,0.2,0,0.5-1.7c0.5-2.2,1.2-4.3,2.2-6.5c0.5-0.9,0.7-1.6,0.7-1.6
			C451,1671.8,449.6,1674.8,449.2,1676z M453.7,1669.4c-1.8,2-5.1,8.8-5.1,12.2c0,0.9,0.3,0.3,0.6-1.3c0.7-4.4,2.5-7.3,4.7-11
			c0.1-0.2,0.1-0.3,0.1-0.3C454,1669,453.9,1669.2,453.7,1669.4z M456.7,1666.5c-0.4,0-2.2,2.2-3.6,4.6c-2,3.4-3.2,6.3-3.7,9.3
			c-0.2,1-0.2,1,0.1,0.8c0.1-0.1,0.5-0.7,0.9-1.2c1-1.5,3.8-6.2,5.1-8.5c0.6-1.1,1.2-2.2,1.4-2.4c0.2-0.2,0.3-0.6,0.3-0.9
			C457.1,1667.7,456.9,1666.5,456.7,1666.5z M455.5,1672.7c-1.7,3.1-4,7-4.8,8.3c-1.5,2.2-0.3,1,0.4,0c0.8-1.1,1.2-1.8,3.2-5.2
			c1.5-2.6,2.7-5,2.8-5.6c0-0.2,0.1-0.3,0-0.3C457,1670,456.6,1670.7,455.5,1672.7z M453.6,1680.9c-0.6,1-0.3,0.8,0.3-0.2
			c0.6-0.9,1-1.8,0.9-1.9C454.8,1678.8,453.7,1680.7,453.6,1680.9z M456.1,1678.6C456.1,1678.7,456.2,1678.8,456.1,1678.6
			C456.3,1678.4,456.1,1678.3,456.1,1678.6z M462.3,1671.1c-1.6,4-2.8,7.8-3.1,9.5c0,0.3,0.1-0.1,0.4-1c0.5-2,1.7-5.2,3.1-8.6
			c0.8-1.9,1-2.6,1.3-3.4C463.6,1668.2,463.1,1669.2,462.3,1671.1z"/>
	</g>
	<g class="st0">
		<path d="M400.5,1762.7c0.2,1-1.3,3.7-3.2,5.8c-1,1.1-3.2,2.9-2.9,2.4c0.1-0.2-0.2,0-1,0.5c-0.6,0.4-2.6,1.3-3,1.7
			c-0.7,0.7-2.8,4.4-4.9,8.5c-1.7,3.5-2.5,5.3-3.4,7.8c-0.6,1.8-0.7,1.9-0.2,0.1c1.2-3.9,4.5-10.7,7.3-15.2c0.7-1.1,0.8-1.3,0.6-1.3
			c-0.3,0-2.9,4.4-4.5,7.7c-3.4,6.7-5,11.5-4.5,13.8c0.1,0.3,0.1,0.3,0.3,0.3c0.5-0.1,2.1-1,3.4-1.8c2.8-1.9,6-4.6,9.2-7.8
			c1.4-1.4,2.6-2.5,2.6-2.5c0.2,0-0.3,0.8-1.4,2c-1.3,1.4-2.6,2.7-4.7,4.6c-0.8,0.7-1.5,1.3-1.5,1.4c0,0.1,1.4-1.1,2.5-2
			c1.3-1.1,3.5-3.4,4.6-4.6c1-1.1,1.3-1.4,1.1-0.7c-0.4,0.9,0.5-0.4,0.7,0c0,0.1,0,0.3,0,0.4c-0.2,0.4-1.9,2.3-3.3,3.9
			c-1.1,1.2-1.2,1.3-0.6,0.7c0.9-0.8,2.4-2.4,3.6-3.8c0.4-0.5,0.7-0.9,0.8-0.9s0,0.1-0.1,0.3c-0.8,1.5-8.4,9-11.6,11.5
			c-1.4,1.1-3,1.9-4.1,2c-0.9,0.1-0.5,0-1.7-0.1c-1.2-0.1-1.7-0.2-2.5-1c-1.4-1.3-1.7-3.4-1-6.6c0.4-1.7,0.4-1.7-0.1-0.9
			c-1.1,1.6-2.7,3.3-4.1,4.2c-0.7,0.5-1.6,0.3-2.5,0.6c-0.8,0.3-1.1,0.2-2-0.4c-1.2-0.8-1.4-1.1-1.5-3c-0.1-2.2,0.4-3.9,1.8-6.8
			c1.4-2.8,2.4-4.2,4.5-6.1c1.6-1.5,2.8-2.2,4.2-2.6c1.9-0.5,4.8,0.8,5.2,1.6c0.3,0.5,0.6-0.3,1.2-1.2c3.1-5,6.2-8.9,9.1-11.3
			c2-1.7,3.8-2.8,4.8-2.8C399,1761,400.3,1761.8,400.5,1762.7z M370.9,1781.8c-0.9,1.3-1.7,3.1-2.3,4.9c-0.5,1.7-0.6,1.8-0.3,0.6
			c0.1-0.4,0.2-0.8,0.2-0.8c0,0-0.1,0.3-0.3,0.7c-0.2,0.5-0.2,1.1-0.3,2l0,1.3l0.3-1c0.8-3,2.1-5.5,3.7-8.2c0.5-0.9,1-1.6,1-1.7
			C372.8,1779.4,371.5,1780.9,370.9,1781.8z M368,1788.3c0,0,0,0.1,0,0.2C367.9,1788.7,367.9,1788.2,368,1788.3z M370.7,1786.3
			c-0.5,0.8-1.2,3.3-1.2,4.1c0,0.3,0,0.5,0,0.5c0,0,0.1-0.5,0.3-1.2c0-0.1,1-3.5,1-3.5C370.7,1786.1,370.7,1786.2,370.7,1786.3z
			 M369.9,1787.5c0,0.3,0.2-0.4,0.2-0.4C369.9,1787.1,369.9,1787.4,369.9,1787.5z M374.4,1782.2c-1.1,1.5-3.6,6.5-3.6,8.3
			c0,0.4,0.2-0.1,0.5-1c0.6-2.1,1.7-4.7,2.8-6.5c0.4-0.6,0.5-1.1,0.5-1.1C374.6,1782.1,374.5,1782.1,374.4,1782.2z M377.5,1779.6
			c-0.4,0.4-1.9,2.3-2.8,3.6c-1.2,1.8-2.8,5.1-3.2,6.7c-0.1,0.3-0.1,0.3,0.1,0.1c0.1-0.1,0.4-0.7,0.6-1.3c0.8-2.4,2.4-5.3,4.5-8
			c0.7-1,0.9-1.3,0.9-1.3C377.7,1779.4,377.6,1779.5,377.5,1779.6z M378.9,1778.6c-1.8,2-3.8,4.9-4.9,7c-0.6,1.1-1.5,3.4-1.5,3.6
			c0,0.2,0.6-0.5,3.3-3.8c4.3-5.2,4.3-5.2,4.4-5.6c0.1-0.5-0.1-1.7-0.3-2C379.7,1777.6,379.4,1778,378.9,1778.6z M374.5,1788.1
			c-0.2,0.4,0.1,0,1.4-1.5c3-3.6,4-4.8,3.8-5C379.6,1781.6,374.6,1787.9,374.5,1788.1z M379.2,1786.2c-0.3,0.4-0.6,1.2-0.7,1.8
			c-0.5,1.7-0.5,2.1,0,0.7c0.2-0.7,0.6-1.6,0.8-2C379.8,1785.4,379.9,1785.1,379.2,1786.2z M387,1774c-2,3.2-4.1,7.3-5.7,10.8
			c-0.7,1.6-1.8,4.7-1.8,5.2c0,0.3,0,0.2,0.1-0.1c1.8-5,4.1-10.1,7.4-15.4c0.4-0.7,0.8-1.3,0.8-1.4c0,0,0,0,0,0
			C387.4,1773.4,387.5,1773.4,387,1774z M380.7,1779.4c-0.1,0.2-0.2,1-0.3,1.2c-0.1,0.2,0,0.2,0.1,0c0.1-0.1,0.2-0.4,0.3-0.5
			C380.9,1779.8,380.9,1779.1,380.7,1779.4z M387.7,1775.3c-1.9,3.2-3.9,7-5.3,10.2c-0.6,1.4-1.7,4.5-1.8,5.2
			c-0.1,0.6,0,0.3,0.3-0.4c1.3-4.1,4.5-10.8,7.6-15.9c0.4-0.6,0.8-1.3,0.7-1.3C389,1773.2,388.6,1773.8,387.7,1775.3z M394.9,1763.1
			c-2,1.5-4.1,3.7-7.5,8c-1.6,2.1-4.2,6.1-4.1,6.4c0.1,0.2-0.2,0.7-0.2,0.9c0,0.2,0,0.2,0.2,0c0.1-0.1,0.6-0.9,1.2-1.8
			c3.4-5.5,6.5-9.5,9.7-12.5c0.8-0.7,1.2-1.1,1.1-1.1C395.2,1762.9,395.1,1762.9,394.9,1763.1z M388.9,1771.5c0,0.1,0.2-0.2,0.8-0.9
			c0.3-0.4,0.5-0.7,0.5-0.7C390.1,1769.9,388.9,1771.4,388.9,1771.5z M395.8,1764.8c-1.2,1.1-4.2,4.5-4.8,5.6
			c-0.2,0.3-0.2,0.3,0.2-0.1c0.9-1,2.6-3.2,3.7-4.3c1-1,1.3-1.5,1.3-1.5C396.1,1764.5,396,1764.6,395.8,1764.8z M393.7,1767.8
			c-2.7,3.3-1.7,2.4-0.1,0.4c0.7-0.8,1.8-2,2.3-2.6l1.1-1.1l-1.2,1.3c-0.7,0.7-1.5,1.7-1.9,2.2c-1,1.2-0.9,1.2-0.7,1
			c0.4-0.2,2.2-2,2.9-3c0.6-0.8,1.3-2,1.2-2.1C397.3,1763.9,394.6,1766.7,393.7,1767.8z M397.9,1764.3c-1.1,2.1-3.1,4.3-5.2,5.8
			c-0.6,0.4-0.2,0.3,0.6-0.2c1.8-1.2,5-4.6,5.3-6.1C398.6,1763.1,398.2,1763.8,397.9,1764.3z M399.5,1764.8
			c-0.6,1.4-2.5,3.6-4.4,5.3c-0.7,0.6-0.5,0.5,0.3-0.1c0.8-0.6,2.3-2.2,3-3.2c0.7-1,1.5-2.4,1.6-2.9c0-0.2,0-0.3,0-0.3
			C399.9,1763.6,399.7,1764.4,399.5,1764.8z M399.1,1763.9c-0.4,0.9-1.6,2.6-2.4,3.7c0.4-0.5,0.8-0.9,1.3-1.5
			c0.6-0.7,1.5-2.5,1.5-2.8C399.5,1763.1,399.2,1763.5,399.1,1763.9z"/>
		<path d="M408.7,1775c0.8,0.7,1.3,0,2.2,0.5c0.6,0.4-0.6,1.7-0.3,1.9c0,0,0.1,0,0.1-0.1s0.1-0.2,0.2-0.3c0.2-0.2,0,0.3-0.9,2.2
			c-1.6,3.4-2.2,5.2-2.7,7.4c-0.3,1.4-0.3,1.8,0.1,0.6c1-3.3,2.2-6.7,3.4-9.3c1-2.2,1-2.1,1.2-2.1c0.7,0,0.7,0.5,1,0.8
			c0.1,0.2,0.1,0.8-0.2,1.6c-0.2,0.4-0.6,1.6-1,2.6c-2.6,6.5-3.4,9.6-3,11.2c0.1,0.5,0.3,0.5,1.1,0.1c1.4-0.7,3.1-2.4,5.9-5.8
			c1.6-1.9,2.2-2.6,3.3-4c0.4-0.5,0.7-0.4,0.3,0.1c-0.6,0.8-7.1,8.7-7.1,8.7c0.2,0,2.3-2.2,3.7-3.9c1.5-1.8,2.5-2.9,3.6-4.5
			c0.6-0.8,0.8-0.8,0.4,0c-0.3,0.6-0.2,0.6,0.2-0.1c0.4-0.5,0.6-0.6,0.6-0.4c0,0.4-3.3,4.9-5.7,7.8c-0.8,0.9-1,1.3-0.7,1
			c0.4-0.3,1.9-2.2,3.5-4.2c3.7-4.8,1.7-1.9,0.2,0c-1.6,2.2-3.4,4.6-6.1,6.5c-0.2,0.2,1.1-0.7,1.5-1c-0.6,0.6-1.3,1.2-2.2,1.6
			c-0.4,0.1-0.7,0.3-0.8,0.3c-0.3,0.1-2.5,0.2-3,0.1c-0.8-0.2-2.2-1.4-2.6-2.4c-0.3-0.7-0.7-2.6-0.6-3c0.1-0.3-0.2,0.2-1.2,1.8
			c-1.1,1.8-1.4,2.1-2.3,2.6c-0.9,0.5-1.9,0.4-3.1,0.5c-0.8,0.1-0.8,0-1.4-0.4c-2.2-1.4-2.7-3.4-1.7-7.4c0.5-2.3,1.2-3.8,2.5-6
			c1.8-3,3.8-5.1,5.9-6.1C404.7,1773.1,407.6,1774,408.7,1775z M398.4,1779.7c-0.9,1.3-1.9,3.3-2.2,4.2c-0.1,0.4-0.2,0.6-0.3,0.6
			c-0.3-0.2-0.8,1.9-0.9,3.4c0,0.7,0,1,0,1c0.9-3.3,1.9-6,3.7-9C399.8,1777.9,399.8,1777.6,398.4,1779.7z M397.7,1784.5
			c-0.6,1.5-1.1,3.4-1.1,4.1c-0.1,1,0,0.9,0.4-0.8c0.2-0.8,0.5-1.9,0.7-2.6C398.1,1784,398.2,1783.3,397.7,1784.5z M399,1785.1
			c-0.6,1.6-0.8,2.7-1.1,4.8c-0.1,0.8,0.1,0,0.5-1.5c0.4-2,1.1-3.9,2-5.9c0.4-0.9,0.7-1.5,0.6-1.5
			C400.6,1781.2,399.4,1784,399,1785.1z M403.2,1779c-1.6,1.8-4.6,8-4.6,11.1c0,0.8,0.3,0.2,0.5-1.1c0.6-4,2.2-6.6,4.3-10
			c0.1-0.2,0.1-0.2,0.1-0.2C403.4,1778.7,403.3,1778.8,403.2,1779z M405.9,1776.4c-0.4,0-2,2-3.3,4.2c-1.8,3.1-2.9,5.7-3.4,8.5
			c-0.2,0.9-0.2,0.9,0,0.7c0.1-0.1,0.5-0.6,0.8-1.1c0.9-1.4,3.5-5.6,4.6-7.7c0.6-1,1.1-2,1.3-2.2c0.1-0.2,0.3-0.6,0.3-0.8
			C406.3,1777.5,406,1776.4,405.9,1776.4z M404.7,1782.1c-1.5,2.8-3.6,6.3-4.3,7.5c-1.3,2-0.3,0.9,0.3,0c0.7-1,1.1-1.6,2.9-4.7
			c1.4-2.3,2.4-4.5,2.6-5.1c0-0.2,0-0.3,0-0.2C406.1,1779.6,405.7,1780.3,404.7,1782.1z M403,1789.5c-0.5,0.9-0.3,0.7,0.3-0.2
			c0.5-0.8,0.9-1.6,0.8-1.7C404.1,1787.6,403.1,1789.3,403,1789.5z M405.3,1787.4C405.3,1787.5,405.4,1787.5,405.3,1787.4
			C405.5,1787.3,405.3,1787.1,405.3,1787.4z M410.9,1780.6c-1.5,3.7-2.6,7.1-2.8,8.6c0,0.3,0.1-0.1,0.3-0.9c0.5-1.8,1.5-4.7,2.8-7.8
			c0.7-1.8,0.9-2.4,1.2-3.1C412.1,1778,411.6,1778.9,410.9,1780.6z"/>
		<path d="M444.4,1772.1c0.3,0.2,1.1,0.6,1,1.3c0,0.3-0.4,0-0.3,0.2c0.1,0.2-0.4,0.8-2.4,3c-1.8,2-3.7,4.4-4.1,5.3
			c-0.5,1.1-0.3,0.9,0.5-0.4c1-1.5,2.4-3.3,4.3-5.4c0.8-0.8,1.6-1.8,1.8-2.2c0.5-0.7,0.7-0.8,0.6-0.3c-0.1,0.5-1,1.7-2.7,3.6
			c-2.1,2.4-3.5,4.2-4,5c-0.5,0.9-0.4,1.1,0.8,1.8c0.9,0.5,2,1.2,2.7,1.8c0.2,0.1,0.3,0.2,0.4,0.2c0,0,0.9-0.6,2-1.4
			c3.1-2.3,6.7-4.6,7.2-4.6c0.3,0-0.2,0.5-1,1c-1.9,1.1-7.7,5.2-7.7,5.5c0,0.2,0.3,0,2.5-1.6c2.8-2.1,5.1-3.7,6.1-4.2
			c0.8-0.4,1.2-0.5,0.9-0.2c-0.6,0.6,0.6,0,0.6,0.4c0,0.2-0.4,0.5-1.8,1.5c-2.1,1.4-7.3,5.3-7.1,5.5c0,0,0.8-0.5,1.8-1.3
			c2.2-1.7,4-3.1,5-3.7c1.1-0.7,0.8-0.4-0.4,0.5c-1.5,1.1-5.3,4-6.2,4.9l0.2,0.7c1.2,3.7-0.5,7.5-4,9.9c-0.7,0.5-1.9,0.8-3,0.6
			c-0.9-0.2-1.4-0.1-2-0.8c-1.2-1.2-1.2-2.4-0.1-4.8c0.7-1.5,1.7-2.9,3.5-4.6l1.4-1.5c-0.7-0.8-1.5-1.3-3.5-2.3
			c-1.7-0.8-1.7-0.8-2.4-1.8c-1-1.3-1-2.2,0-4.3c1-2.1,4.6-6.6,6.7-7.6C443.3,1771.2,443.6,1771.6,444.4,1772.1z M438,1777.2
			c-0.3,0.4-0.6,0.8-0.6,0.8s0.2-0.4,0.2-0.4c-0.1-0.1-1.3,1.8-1.5,2.5c-0.4,1.1-0.3,1.1,0.6-0.3c1.4-2.1,4.8-6,6.3-7.2
			C441.3,1773.2,439.2,1775.5,438,1777.2z M437.9,1791.8c-0.8,1-1.5,2.5-1.7,3.1c-0.1,0.6,0.1,0.4,0.7-0.7c0.7-1.4,1.9-3,3.3-4.5
			c1.3-1.3,1.5-1.6,1.2-1.6C441.2,1788.3,438.7,1790.9,437.9,1791.8z M439.1,1778.7c-1,1.2-1.7,2.4-1.8,2.7
			c-0.2,0.5,0.1,0.2,0.6-0.7c0.3-0.5,0.9-1.4,1.5-2.2C440.6,1777,440.2,1777.2,439.1,1778.7z M437.3,1795.2
			c-0.1,0.3,0.1,0.1,0.4-0.6c0.5-1.1,1.7-2.8,2.4-3.7c0.2-0.2,0.3-0.3,0.3-0.3C440.3,1790.6,437.6,1793.2,437.3,1795.2z
			 M439.2,1793.3c-0.6,0.9-1.2,2.1-1.4,2.7c0,0.2,0.2-0.2,0.5-0.8c0.7-1.5,1.8-2.8,2.9-4c0.5-0.5,0.9-0.9,0.9-1c0,0,0-0.1,0,0
			C441.7,1790.2,440.2,1791.9,439.2,1793.3z M441.1,1791.6c-1.6,1.7-2.8,3.7-3,5.2c-0.1,0.5,0,0.5,0.1,0.5c0.1,0,0.5-0.2,0.8-0.4
			c1.9-1.2,3.2-3.5,3.1-6.4L441.1,1791.6z M445.9,1774.6c0.1,0.1-0.7,1.1-2.2,2.8c-1.8,2.1-3.5,4.2-4.1,5c-0.3,0.4-0.5,0.8-0.5,0.8
			s0-0.2,0.1-0.4c0.3-0.8,1.6-2.5,3.9-5.1C444.8,1775.9,445.9,1774.5,445.9,1774.6z M442.1,1794.2c-0.6,1.1-1.2,1.8-2.1,2.7
			c-0.8,0.7-0.7,0.8,0.1,0.3c1.2-0.8,2.4-2.4,2.4-3.5C442.6,1793.2,442.4,1793.7,442.1,1794.2z M444.4,1794.4
			c-0.5,1.3-1.1,2-2.4,3.2c-0.8,0.8-0.9,0.9-0.1,0.4c1-0.7,2.2-2.3,2.6-3.3C444.8,1793.8,444.7,1793.7,444.4,1794.4z M443.4,1794.1
			c-0.3,0.5-0.8,1.3-1.1,1.7c-1,1.4,0.1,0.3,0.4-0.2c0.2-0.2,1.3-2.2,1.1-2.3C443.8,1793.5,443.7,1793.7,443.4,1794.1z"/>
		<path d="M458.7,1774c0.5-0.3,1.4,0.3,1.5,0.3c0.3,0.2,0.4,0.4,0.3,0.8c-0.1,0.3-0.1,0.3,0.1,0.1c0.2-0.2,0.2-0.2,0.1,0.1
			c0,0.1-1,1.9-2,3.9c-3.9,7.1-4.4,8.3-5,10.6c-0.3,1.2-0.2,1.1,0.3-0.3c0.8-2.3,1.5-3.8,5-10.1c1.1-1.9,2-3.7,2.1-3.9
			c0.2-0.5,0.9-0.6,0.8-0.1c-0.1,0.6-1.1,2.4-3.5,6.8c-2.5,4.6-3.2,6.1-3.7,7.5c-0.3,0.8-0.8,2.1-0.6,2.3c0.2,0.2,1.3-0.5,2.5-1.6
			c2.1-1.9,3.9-4,9.5-11.6c2.7-3.6,3.4-4.3,4.1-4.3c0,0,0.7,0,1.1,0.1c0.4,0.1,0.5,0.1,0.2,0.8c-0.4,0.9-0.2,0.8,0.3,0.1
			c0.2-0.3,0.5-0.6,0.6-0.6c1,0-0.1,1.9-0.8,2.9c-0.6,0.9-1.5,2.3-2,3c-1.6,2.5-3.8,7.2-4.4,9.2c-0.3,1.2-0.3,1.7,0,0.6
			c1.2-3.9,4.4-9.6,6.7-13c0.3-0.4,0.7-1.1,0.9-1.5c0.3-0.6,0.4-0.7,0.4-0.5c0.1,0.4-0.4,1.4-1.5,2.9c-2.3,3.5-3.5,5.6-5.1,9.1
			c-0.8,1.8-1.3,3.1-1.3,3.9c0,0.6,0,0.6,0.3,0.5c0.9-0.2,3.2-2,5-4c1-1.1,3.8-4.5,5.3-6.4c0.9-1.1,1.6-1.8,1.4-1.3
			c-0.2,0.5-3.8,5-5.7,7.3c-0.9,1-2.4,2.6-2.8,2.9c-0.1,0.1-0.3,0.3-0.4,0.4c-0.1,0.2-0.1,0.2,0.2,0c1.2-0.8,5-5.1,7.7-8.7
			c1.6-2.1,2-2.4,1.5-1.3c0,0.1,0.1,0,0.3-0.1c0.4-0.4,0.6-0.2,0.4,0.2c-1.8,3-8.2,10.3-8.2,10.3c0.2,0.2,5.3-5.7,7.5-8.9
			c0.8-1.2,1.3-1.8,1-1.2c-1.1,2-5.9,7.9-8.3,10.4c-1.3,1.3-2,1.8-3.2,2.2c-1,0.3-2.8,0.4-3.6,0.3c-0.8-0.1-2-1.1-2.4-1.8
			c-0.3-0.5-0.3-0.7-0.3-2.1v-1.5c-1.3,1.6-3.3,4.1-5.6,4.9c-1,0.3-3.1,0.4-3.7,0.1c-0.7-0.3-1.7-1.2-2-1.8
			c-0.9-1.9-0.4-4.7,1.6-9.2c1.3-3,2.7-5.5,3.7-6.9c0.7-1,1.8-1.9,2.1-1.9C457.7,1773.7,458.7,1773.5,458.7,1774z M453.5,1781.4
			c-0.5,0.9-0.9,1.7-0.9,1.7c0,0,2.1-4.8,0.6-1.8c-1.7,3.4-2.3,5.4-2.6,7.7l0.2-0.6c1.5-4.2,4.9-10.9,7-13.6
			C455.8,1776.6,454.7,1779.2,453.5,1781.4z M454.7,1783.1c-1.4,2.7-2.4,5.1-2.5,6.1c-0.1,0.7,0.1,0.4,0.4-0.6
			c1.2-3.9,5.6-11.5,5.5-11.5C458,1776.9,455.6,1781.3,454.7,1783.1z M457.2,1790.3c-0.4,0.4-0.8,0.8-0.8,0.8c0,0.2,0.9-0.6,1.7-1.3
			c1.1-1.2,2.8-3.1,4-4.8c1.1-1.5,2-2.8,1.9-2.9C463.9,1782.1,459.3,1788.3,457.2,1790.3z M460.9,1788.3c-0.3,0.4-1,1.3-1.6,1.9
			s-1,1.2-1.1,1.2c-0.2,0.4,3.7-3.5,3.3-3.8C461.5,1787.6,461.2,1787.9,460.9,1788.3z M463.7,1785.5c-0.4,1.1-1.1,2.6-1.4,3.6
			c-0.1,0.6,0,0.5,0.3-0.2c0.2-0.5,1.5-3.2,1.5-3.7c0-0.1,0.4-0.9,0.4-1C464.4,1784.2,463.9,1785.1,463.7,1785.5z M467.4,1781.6
			c-1,1.7-2,3.7-2.8,5.6c-0.6,1.3-0.9,2.1-0.9,2.6c0,0.2,0.2-0.2,0.6-1.2c0.9-2.4,2.3-5.5,3.4-7.3c0.2-0.3,0.3-0.5,0.3-0.5
			C468,1780.7,467.8,1781,467.4,1781.6z M465.5,1782.2c-0.2,0.2-1,1.6-1,1.7C464.4,1784.4,466.2,1781.3,465.5,1782.2z M469.2,1783.8
			c-0.8,1.6-3.2,6.8-3.2,6.8c0-0.5,1.5-3.9,3.1-7c0.8-1.6,4.4-7.2,4.5-7.3C473.7,1776.3,469.8,1782.7,469.2,1783.8z M477.1,1782.3
			C477,1782.5,477,1782.5,477.1,1782.3c0.1-0.1,0.5-0.6,0.5-0.6C477.5,1781.7,477.2,1782.2,477.1,1782.3z"/>
		<path d="M489,1775c0.8,0.7,1.3,0,2.2,0.5c0.6,0.4-0.6,1.7-0.3,1.9c0,0,0.1,0,0.1-0.1s0.1-0.2,0.2-0.3c0.2-0.2,0,0.3-0.9,2.2
			c-1.6,3.4-2.2,5.2-2.7,7.4c-0.3,1.4-0.3,1.8,0.1,0.6c1-3.3,2.2-6.7,3.4-9.3c1-2.2,1-2.1,1.2-2.1c0.7,0,0.7,0.5,1,0.8
			c0.1,0.2,0.1,0.8-0.2,1.6c-0.2,0.4-0.6,1.6-1,2.6c-2.6,6.5-3.4,9.6-3,11.2c0.1,0.5,0.3,0.5,1.1,0.1c1.4-0.7,3.1-2.4,5.9-5.8
			c1.6-1.9,2.2-2.6,3.3-4c0.4-0.5,0.7-0.4,0.3,0.1c-0.6,0.8-7.1,8.7-7.1,8.7c0.2,0,2.3-2.2,3.7-3.9c1.5-1.8,2.5-2.9,3.6-4.5
			c0.6-0.8,0.8-0.8,0.4,0c-0.3,0.6-0.2,0.6,0.2-0.1c0.4-0.5,0.6-0.6,0.6-0.4c0,0.4-3.3,4.9-5.7,7.8c-0.8,0.9-1,1.3-0.7,1
			c0.4-0.3,1.9-2.2,3.5-4.2c3.7-4.8,1.7-1.9,0.2,0c-1.6,2.2-3.4,4.6-6.1,6.5c-0.2,0.2,1.1-0.7,1.5-1c-0.6,0.6-1.3,1.2-2.2,1.6
			c-0.4,0.1-0.7,0.3-0.8,0.3c-0.3,0.1-2.5,0.2-3,0.1c-0.8-0.2-2.2-1.4-2.6-2.4c-0.3-0.7-0.7-2.6-0.6-3c0.1-0.3-0.2,0.2-1.2,1.8
			c-1.1,1.8-1.4,2.1-2.3,2.6c-0.9,0.5-1.9,0.4-3.1,0.5c-0.8,0.1-0.8,0-1.4-0.4c-2.2-1.4-2.7-3.4-1.7-7.4c0.5-2.3,1.2-3.8,2.5-6
			c1.8-3,3.8-5.1,5.9-6.1C485,1773.1,487.9,1774,489,1775z M478.7,1779.7c-0.9,1.3-1.9,3.3-2.2,4.2c-0.1,0.4-0.2,0.6-0.3,0.6
			c-0.3-0.2-0.8,1.9-0.9,3.4c0,0.7,0,1,0,1c0.9-3.3,1.9-6,3.7-9C480.2,1777.9,480.2,1777.6,478.7,1779.7z M478.1,1784.5
			c-0.6,1.5-1.1,3.4-1.1,4.1c-0.1,1,0,0.9,0.4-0.8c0.2-0.8,0.5-1.9,0.7-2.6C478.4,1784,478.5,1783.3,478.1,1784.5z M479.3,1785.1
			c-0.6,1.6-0.8,2.7-1.1,4.8c-0.1,0.8,0.1,0,0.5-1.5c0.4-2,1.1-3.9,2-5.9c0.4-0.9,0.7-1.5,0.6-1.5
			C481,1781.2,479.7,1784,479.3,1785.1z M483.5,1779c-1.6,1.8-4.6,8-4.6,11.1c0,0.8,0.3,0.2,0.5-1.1c0.6-4,2.2-6.6,4.3-10
			c0.1-0.2,0.1-0.2,0.1-0.2C483.7,1778.7,483.7,1778.8,483.5,1779z M486.2,1776.4c-0.4,0-2,2-3.3,4.2c-1.8,3.1-2.9,5.7-3.4,8.5
			c-0.2,0.9-0.2,0.9,0,0.7c0.1-0.1,0.5-0.6,0.8-1.1c0.9-1.4,3.5-5.6,4.6-7.7c0.6-1,1.1-2,1.3-2.2c0.1-0.2,0.3-0.6,0.3-0.8
			C486.6,1777.5,486.4,1776.4,486.2,1776.4z M485.1,1782.1c-1.5,2.8-3.6,6.3-4.3,7.5c-1.3,2-0.3,0.9,0.3,0c0.7-1,1.1-1.6,2.9-4.7
			c1.4-2.3,2.4-4.5,2.6-5.1c0-0.2,0-0.3,0-0.2C486.4,1779.6,486,1780.3,485.1,1782.1z M483.4,1789.5c-0.5,0.9-0.3,0.7,0.3-0.2
			c0.5-0.8,0.9-1.6,0.8-1.7C484.5,1787.6,483.5,1789.3,483.4,1789.5z M485.7,1787.4C485.7,1787.5,485.7,1787.5,485.7,1787.4
			C485.8,1787.3,485.7,1787.1,485.7,1787.4z M491.3,1780.6c-1.5,3.7-2.6,7.1-2.8,8.6c0,0.3,0.1-0.1,0.3-0.9c0.5-1.8,1.5-4.7,2.8-7.8
			c0.7-1.8,0.9-2.4,1.2-3.1C492.5,1778,492,1778.9,491.3,1780.6z"/>
	</g>
	<g class="st0">
		<path d="M342.9,1737.8v-18.2c0-9.8,3.6-15.7,14-15.7c10.4,0,14,5.8,14,15.7v18.2c0,9.8-3.6,15.9-14,15.9
			C346.4,1753.7,342.9,1747.6,342.9,1737.8z M361.9,1739.9v-22.4c0-4.1-0.7-7.1-5-7.1s-5,3.1-5,7.1v22.4c0,4,0.7,7.3,5,7.3
			C361.2,1747.1,361.9,1743.9,361.9,1739.9z"/>
		<path d="M399.3,1704.4h9.5l9.7,48.6h-8.2l-1.9-11.2h-8.5l-2,11.2h-8.3L399.3,1704.4z M407.4,1736.1l-3.3-20.4l-3.3,20.4H407.4z"/>
		<path d="M424.1,1704.4h9.2l6.9,33.7l7.1-33.7h8.9l0.9,48.6h-6.6l-0.7-33.8l-6.9,33.8h-5.3l-7-33.9l-0.7,33.9h-6.7L424.1,1704.4z"
			/>
		<path d="M463.5,1737.8v-18.2c0-9.8,3.6-15.7,14-15.7c10.4,0,14,5.8,14,15.7v18.2c0,9.8-3.6,15.9-14,15.9
			C467.1,1753.7,463.5,1747.6,463.5,1737.8z M482.6,1739.9v-22.4c0-4.1-0.7-7.1-5-7.1c-4.3,0-5,3.1-5,7.1v22.4c0,4,0.7,7.3,5,7.3
			C481.9,1747.1,482.6,1743.9,482.6,1739.9z"/>
		<path d="M498.1,1704.4h11.7c9.7,0,15.2,3.1,15.2,12.9c0,5.8-1.4,9.9-6,11.8l6.8,23.9h-8.9l-5.8-22.3h-4.2v22.3h-8.8V1704.4z
			 M509.7,1725.2c5.1,0,7-2.2,7-7.4c0-4.9-1.4-7.3-6.5-7.3h-3.3v14.8H509.7z"/>
	</g>
	<g class="st0">
		<path d="M348.6,1808.9h12.2l10.1,53.9l9.5-53.9h12.5l-15.3,76.1h-13.6L348.6,1808.9z"/>
		<path d="M401,1808.9h13.7v76.1H401V1808.9z"/>
		<path d="M426.5,1808.9h18c18.5,0,24.2,7.4,24.2,23.7v27.7c0,16.7-5.7,24.7-23.6,24.7h-18.5V1808.9z M444.6,1875.3
			c9.5,0,9.9-5.1,9.9-14.6v-29.1c0-9.1-0.9-12.9-10.1-12.9h-4.1v56.6H444.6z"/>
		<path d="M489.6,1808.9h14.9l15.2,76.1h-12.9l-3-17.6h-13.3l-3.1,17.6h-13.1L489.6,1808.9z M502.3,1858.6l-5.2-32l-5.2,32H502.3z"
			/>
	</g>
</g>
</svg>
