<svg xmlns="http://www.w3.org/2000/svg" width="218.931" height="300.941" viewBox="0 0 182.9 251.413"><g transform="translate(-342.9 -1633.587)"><path d="M421.1,1636.5a4.373,4.373,0,0,1,.2,5.5c-1.9,3-6.5,7.8-8.9,9.1-.7.4-1.4.5-1.6.3-.3-.4-2.9-.5-3-1.8,0-.2-.1-.5-.2-.5-.6-.4.5-1.1.9-1,.3.2,1.7-.5,2.7-1.4a52.573,52.573,0,0,0,6.4-7c1.7-2.5,1.5-2.6-1.6-1.2-6.2,2.8-12,7-14.9,10.8-.8,1.1-.9,1,0-.2,2.2-3.1,6.6-6.6,12.5-9.6,1-.5,1.9-1,1.9-1a31.893,31.893,0,0,0-3.3,1.5c-5.6,2.9-10,6.5-11.8,9.5-2.6,4.3-.6,5.2,2,7.2a32.479,32.479,0,0,1,7,6.8c.7,1,1.1,1.5,1.3,1.5s.2.1.1.2c-.3.3,0,.5.3.4.3-.2.5-.1.4.1s-.5.6.1.4c.8-.3.5.3.2.6-.9.9,1.2-.4.2.4-.4.4-.4.5-.2,1.6a8.536,8.536,0,0,1,0,3.9,14.063,14.063,0,0,1-2.4,6,27.411,27.411,0,0,1-8.4,8.2c-.8.5-1.4.9-1.4.9a18.613,18.613,0,0,0,2.6-1.5,25.718,25.718,0,0,0,6.4-5.9c1.2-1.5,1.5-1.7.5-.4a24.538,24.538,0,0,1-13.5,9.4c-3.1.9-5.2.8-7.3-.2-1.7-.8-1.8-.9-2.5-2.3a3.406,3.406,0,0,1-.3-3.1c.7-2.2,3.1-5,6.5-7.5a136.03,136.03,0,0,1,14.2-8.9c.4-.2.6-.4.6-.5.1-.7-1.2-2.6-2.7-4.1-.5-.5-2-1.8-3.2-2.8-2.9-2.3-3.6-3.1-4.5-4.5-1.4-2.1-2.2-4.5-1-7.2,1.4-3,5.4-7,9.8-10,3.8-2.5,8.4-4.4,11.3-4.6a3.656,3.656,0,0,1,2.9,1C419.9,1634.8,420.3,1635.2,421.1,1636.5Zm-16.1,32a104.015,104.015,0,0,0-14.1,9.4,14.907,14.907,0,0,0-4.1,4.8c-.2.4,0,.3.6-.5,3-3.5,5.3-5.5,10.9-9.2,2.1-1.4,6.4-4,7.7-4.7.4-.2,1.1-.8.9-.8C406.8,1667.5,406.4,1667.8,405,1668.5Zm-16.2,13.4a4.945,4.945,0,0,0-.9,1.5l3.3-3.9C390.1,1680.1,389.7,1680.9,388.8,1681.9Zm8.5-6.2a33.967,33.967,0,0,0-7.6,6.8,7.761,7.761,0,0,0-1.2,1.9s.9-1.1,1.2-1.5c2.3-3.1,7.4-7.1,14.9-11.8,1.1-.7,2.1-1.3,2.1-1.3v-.1C406.5,1669.6,400.5,1673.5,397.3,1675.7Zm7.4-4.3c-10,6.3-15.3,11-15.9,14-.2,1.2-.2,1.3,1.4,1.1a14.111,14.111,0,0,0,5-1.7c5.3-2.9,9.5-7.7,11.1-12.7a7.189,7.189,0,0,0,.4-1.9Zm-4.4,11.1a31.593,31.593,0,0,1-2.7,2,6.731,6.731,0,0,0-1.5,1.1,7.008,7.008,0,0,0,2.4-1.2,17.7,17.7,0,0,0,4.8-4.3,10.371,10.371,0,0,0,1.6-2.5c.8-1.3.2-.6-.6.5A23,23,0,0,1,400.3,1682.5Zm-.4-38.6-.9.9a18.849,18.849,0,0,1,2-2c.2-.1.3-.3.4-.4.2-.4-1.3,1-2.1,1.9-.7.8-2.3,3.1-1.8,2.6a19.629,19.629,0,0,0,1.5-1.5,53.59,53.59,0,0,1,11.1-8.3,7.354,7.354,0,0,0,1.6-1c-.1-.2-1.8.7-3.4,1.5A35.517,35.517,0,0,0,399.9,1643.9Zm3.6-.8a21.364,21.364,0,0,0-4.3,4.3c-.3.5-.4.8-.2.5.1-.1.6-.7,1.2-1.3,1-1.1,1.6-1.6,3.6-3.5l1-.9Zm5.4-2.2a32.853,32.853,0,0,0-8.4,7.3c-.9,1.2-.8,1.2.2,0a43.475,43.475,0,0,1,9.6-8c.3-.2.3-.2.1-.2C410.4,1640,409.7,1640.4,408.9,1640.9Zm-5.7,43.3c-1.5,1.2-1.7,1.5-1.1,1.1a20.168,20.168,0,0,0,3.9-3.2c.8-.9,2.2-2.7,2.3-2.9,0,0-.5.5-1,1.1A25.8,25.8,0,0,1,403.2,1684.2Zm3.4-5.5c-1.1,1.2-2.9,3.2-3.4,3.7-1.1,1.1-.4.6.5-.2.6-.7,2.9-2.9,2.9-3.5Zm3.1-29.8c.9.2,1.6-.5,2.3-1a39.2,39.2,0,0,0,5.1-5.5,18.179,18.179,0,0,0,1.5-2.3C416.7,1642.5,412.5,1647.2,409.7,1648.9Zm3,1.2c-.5.3-.4.4.2.1,1.2-.6,5.4-4.7,6.7-6.6.6-.9.3-.5-.3.2A34.693,34.693,0,0,1,412.7,1650.1Zm7.2-9.1s-3.8,4.4-4.1,4.7c-1.1,1.3-2.3,2-3.2,3.2a16.541,16.541,0,0,0,2.8-2.4,33.086,33.086,0,0,0,3.9-4.5A7.2,7.2,0,0,1,419.9,1641Zm-.9,4.8c-2,2.3-5,5-6.2,5.4-.2.1-.2,0-.2,0,.1-.1.5-.3.9-.6a35.144,35.144,0,0,0,5.3-4.8q1.05-1.2,1.2-1.2S419.7,1645,419,1645.8Z"/><path d="M423.7,1663.4a5.161,5.161,0,0,1,1.1.2c3.5.5,4.9,3,3.6,7a17.824,17.824,0,0,1-3.1,6,3.108,3.108,0,0,1-2.5,1.3,6.322,6.322,0,0,1-3.4-.3c-.2-.1-.4.5-1,2.9a11.113,11.113,0,0,1-.4,1.3c0-.3.5-2.5.7-3.5.2-.7.2-1.3,0-1.2a18.589,18.589,0,0,0-1.1,5.8,4.871,4.871,0,0,0,.2,1.5c.2.4.2.4.6.4,3.4-.6,12.4-10.8,12.5-10.7s-.2.5-1.4,1.9a43.2,43.2,0,0,1-4.2,4.5,16.848,16.848,0,0,1-1.7,1.6c-.2.2-.2.2.1,0a59.9,59.9,0,0,0,5.2-5.1c1.9-2.2,2.6-2.9,2.5-2.7-.5,1.5.5-.3.5.3,0,.4-2.3,3.4-4.4,5.8l-1.2,1.3,1-1a38.495,38.495,0,0,0,3.7-4.3c1.1-1.4,1.5-1.8.7-.7a63.8,63.8,0,0,1-8.6,9.6,8.068,8.068,0,0,1-2.7,1.7,5.9,5.9,0,0,1-2.9.2,4.134,4.134,0,0,1-3.2-1.7c-2.9-3.3-1.8-8,.2-12.5a27.993,27.993,0,0,1,4.8-7.3C421.1,1664.1,422.4,1663.1,423.7,1663.4Zm-6.1,6.7a28.83,28.83,0,0,0-2.1,4.3,8.72,8.72,0,0,1-.6,1.3s.2-.6.5-1.4c.8-1.8.9-2.1.8-2.1a15.868,15.868,0,0,0-1.4,3.4c-.1.5-.4,1.8-.5,2.3-.1.3,0,.3.2-.3.1-.4.7-1.7,1.2-2.8a49.81,49.81,0,0,1,4.8-8.1c.3-.5.6-.9.5-.9A30.061,30.061,0,0,0,417.6,1670.1Zm.5,3a20.915,20.915,0,0,0-1.8,4.5c-.2.9-.3,1.5-.1.9.4-1.3,1.5-3.9,2.1-5.3C419.1,1671.3,418.9,1671.4,418.1,1673.1Zm.2,3.5a19.733,19.733,0,0,0-.7,2.6c0,.2.1-.2.4-1a4,4,0,0,0,.4-1.7C418.4,1676.2,418.4,1676.3,418.3,1676.6Zm2.5-5.5c-1.2,2.1-2.2,4.2-1.9,4.2a11.712,11.712,0,0,0,.7-1.5,34.927,34.927,0,0,1,2.5-4.5c.5-.8.9-1.5.9-1.5S421.5,1669.9,420.8,1671.1Zm3.3-3.3a37.335,37.335,0,0,0-4.1,6.6c-.4.9-.4,1.1-.2,1.1a14.462,14.462,0,0,0,.8-1.4,51.542,51.542,0,0,1,3.6-6.1,3,3,0,0,0,.5-.8Q424.55,1667.2,424.1,1667.8Zm-3.2,6.1a9.77,9.77,0,0,0-.7,1.7c0,.2.5.2,1.1,0,1.4-.5,2.5-2.1,4-5.9.5-1.4,1.2-3.4.8-3.4C425.4,1666.4,422.4,1670.7,420.9,1673.9Zm2.5.9a2.768,2.768,0,0,0-.4.7l.4-.2c.8-.6,2.2-3.1,3.1-5.8a3.8,3.8,0,0,0,.2-1.7A38.886,38.886,0,0,1,423.4,1674.8Zm4.5-3.9a16.01,16.01,0,0,1-2.3,4.5l-.4.6c0,.2.5-.3.9-.9a16.436,16.436,0,0,0,2.2-5.1v-.1A3.679,3.679,0,0,0,427.9,1670.9Zm-.7-1.2c-.4,1-.7,2-1.1,2.9a6.277,6.277,0,0,1-.8,1.5c-.1-.1-.1,0,0,.1.1.2.3-.1.9-1.1a26.656,26.656,0,0,0,1.6-4.4v-.2C427.6,1668.6,427.4,1668.9,427.2,1669.7Z"/><path d="M438,1677.2c.5,0,8.9-7,9.8-8.1a.758.758,0,0,1,.4-.2c.4,0-.3.8-2.3,2.7s-5,4.3-7,5.9c-1,.7-1.4,1.1-1.2,1.3a71.126,71.126,0,0,0,5.9-4.5c.7-.6,5.6-5,5.7-5a2.5,2.5,0,0,1-.4.8l-.4.7.6-.6c.6-.6.9-.7.8-.3,0,.4-.5,1-1.9,2.4a53.228,53.228,0,0,1-6.4,5.5c-1.3,1-2.4,1.9-2.5,2-.8.8,4.7-3.4,6.7-5.1a52.5,52.5,0,0,0,4.1-4.1,1.2,1.2,0,0,1,.4-.4,13.939,13.939,0,0,1-2.4,2.8,98.554,98.554,0,0,1-9.9,8.1c-2.5,1.9-2.2,1.7-3.7,4.8a81.143,81.143,0,0,1-4.9,9,42.657,42.657,0,0,1-2.6,3.5c-.1,0,0-.1.9-1.3a69.417,69.417,0,0,0,6.5-11.3c1.5-3.1.7-2.7-.3-.5-.6,1.4-.9,1.8-1.6,3.3-3.3,6.9-8.7,14-12.1,16a10.115,10.115,0,0,1-4.9,1.3c-.8,0-1.6-.1-1.8-.1a7,7,0,0,1-1.7-1.4,3.19,3.19,0,0,1-.5-2.6c.5-3.6,4.1-7.5,14-15.2l3.1-2.4,1-2.4c1.3-3.4,1.2-3,3.6-9.9,1.2-3.4,2.2-6.5,2.3-6.8.2-.6,1-1.5,1.5-1.5a5.679,5.679,0,0,1,2.6,1.2c.3.1.2,1.5.5,1,.6-.8.3,2-.6,5-.5,1.9-1.7,5.4-2.2,7C437.4,1677.7,437.9,1677.2,438,1677.2Zm-10.7,8.7c-1,.6-8,6.3-10,8.1-3.3,3.1-5.2,5.7-5.3,7.4-.1.7.2.5.6-.5,1-2.5,2.7-4.6,6.3-7.9,2.1-1.9,3.7-3.3,6.6-5.5a22.443,22.443,0,0,0,2-1.7Zm-14.2,15.8c0,.4.2.1.4-.5a20.82,20.82,0,0,0,1-2.4C414.3,1698.5,413.2,1701.1,413.1,1701.7Zm6.1-7c-3,2.6-4.6,4.9-5.1,6.9-.2.8-.1.7.3-.2.8-2.1,2.2-3.9,4.9-6.5,1-1,1.8-1.7,1.8-1.7A9.626,9.626,0,0,0,419.2,1694.7Zm5.8-4.2a66.572,66.572,0,0,0-5.8,4.7c-3.3,3.1-5,6-4.7,7.8.1.6.1.6.5.5a5.734,5.734,0,0,0,1.3-.7,24.005,24.005,0,0,0,4.8-5.1c1.6-2.4,4.1-6.6,4.1-7.1C425.3,1690.3,425.1,1690.4,425,1690.5Zm2.3-1.2c-.1-.1-.5.6-1.6,2.8a43,43,0,0,1-5.4,8.2c-2.2,2.7,0,.6.9-.4.6-.7,1.5-1.9,2-2.6,2.2-3.1,5.3-8.9,4.8-9C427.8,1688.3,427.4,1689.4,427.3,1689.3Zm4.7-1.8a71.429,71.429,0,0,1-6.2,10.4c-.5.6-.9,1.3-1,1.4-.3.5.7-.7,1.7-2a63.79,63.79,0,0,0,5.6-9.2c1-2.1,1.6-3.4,1.4-3.4C433.4,1684.6,433.3,1685,432,1687.5Zm-1.8.1c-.4.9-2.5,5.1-2.5,5.1a6.43,6.43,0,0,0,.8-1.4,34.958,34.958,0,0,0,2.5-5A6.034,6.034,0,0,0,430.2,1687.6Zm0-4.9c-.1,1,1.2-2.3,1.1-2.4A9,9,0,0,0,430.2,1682.7Zm8.8-29.3c0,.3,0,.3.3-.2.3-.6.5-.7,1.1-.5,3.5,1.1,3.4,3.6,1.6,7.1a2.637,2.637,0,0,1-.9,1.1c-.4.2-.4.2-.3-.1a9.236,9.236,0,0,1,.5-.8,6.056,6.056,0,0,0,1.1-2.3c.2-.8.1-.7-.5.7a9.6,9.6,0,0,1-1.3,2.1,1.035,1.035,0,0,1-.7.5c-.7.1-.1-.8.3-1.9.7-1.8.9-2.5.7-2.4s-.3-.4-.2.1a14.932,14.932,0,0,1-2.2,4.6c-.3,0-.4-.5-.6-.9-.1-.4-.2-.4-.2-.2,0,.5-.3.5-.6,0-.7-1.3.4-4.2.5-5.7.1-1.1.1-1.4.4-1.7.2-.2.4-.4.5-.4C438.7,1652.4,438.9,1652.9,439,1653.4Zm-.6,3.2c-.5,1.3-.9,4.1,0,1.9a4.541,4.541,0,0,0,.3-2.8Z"/><path d="M459.8,1664.9c.8.7,1.4,0,2.4.6.7.4-.6,1.9-.4,2.1a.1.1,0,0,0,.1-.1c0-.1.1-.2.2-.4.2-.3,0,.3-1,2.4a45.175,45.175,0,0,0-3,8.2c-.4,1.5-.3,1.9.1.6a78.6,78.6,0,0,1,3.8-10.2c1.1-2.4,1.1-2.3,1.3-2.3.8.1.8.5,1.1.9a2.841,2.841,0,0,1-.2,1.7c-.2.5-.7,1.8-1.1,2.8-2.9,7.2-3.8,10.6-3.3,12.4.2.6.3.6,1.2.1,1.5-.8,3.5-2.7,6.5-6.4,1.8-2.1,2.5-2.9,3.7-4.4.5-.6.7-.5.3.1-.7.9-7.9,9.6-7.9,9.6.3,0,2.5-2.4,4.1-4.3,1.6-2,2.7-3.2,4-4.9.7-.9.9-.9.5,0-.3.7-.3.6.3-.1.4-.6.6-.7.6-.4,0,.5-3.7,5.5-6.3,8.6-.9,1-1.2,1.5-.7,1.1.4-.4,2.1-2.4,3.9-4.7,4.1-5.3,1.8-2.1.2,0-1.8,2.4-3.7,5.1-6.8,7.2-.3.3,1.3-.8,1.7-1.1a5.083,5.083,0,0,1-2.5,1.7,2.563,2.563,0,0,0-.9.4,17.649,17.649,0,0,1-3.3.1,5.775,5.775,0,0,1-2.9-2.7,8.9,8.9,0,0,1-.6-3.3c.1-.4-.3.2-1.4,1.9-1.2,2-1.5,2.3-2.6,2.9a8.97,8.97,0,0,1-3.4.6,1.608,1.608,0,0,1-1.6-.4c-2.4-1.6-2.9-3.7-1.9-8.2a21.913,21.913,0,0,1,2.7-6.6c2-3.3,4.2-5.6,6.6-6.7C455.4,1662.8,458.6,1663.8,459.8,1664.9Zm-11.3,5.2a22.839,22.839,0,0,0-2.4,4.6,2.488,2.488,0,0,1-.3.7c-.3-.2-.9,2.1-1,3.7v1.1a41.007,41.007,0,0,1,4-10C450.1,1668.1,450.1,1667.7,448.5,1670.1Zm-.7,5.3a18.411,18.411,0,0,0-1.2,4.6c-.1,1.1,0,1,.4-.9.2-.8.5-2.1.8-2.9C448.1,1674.8,448.2,1674.1,447.8,1675.4Zm1.4.6a23.119,23.119,0,0,0-1.2,5.3c-.1.9.2,0,.5-1.7a33.221,33.221,0,0,1,2.2-6.5,8.449,8.449,0,0,0,.7-1.6A20.92,20.92,0,0,0,449.2,1676Zm4.5-6.6c-1.8,2-5.1,8.8-5.1,12.2,0,.9.3.3.6-1.3.7-4.4,2.5-7.3,4.7-11a.774.774,0,0,0,.1-.3A1.726,1.726,0,0,1,453.7,1669.4Zm3-2.9c-.4,0-2.2,2.2-3.6,4.6a26.91,26.91,0,0,0-3.7,9.3c-.2,1-.2,1,.1.8.1-.1.5-.7.9-1.2,1-1.5,3.8-6.2,5.1-8.5a22.209,22.209,0,0,1,1.4-2.4,1.4,1.4,0,0,0,.3-.9C457.1,1667.7,456.9,1666.5,456.7,1666.5Zm-1.2,6.2c-1.7,3.1-4,7-4.8,8.3-1.5,2.2-.3,1,.4,0a60.953,60.953,0,0,0,3.2-5.2,33.543,33.543,0,0,0,2.8-5.6c0-.2.1-.3,0-.3C457,1670,456.6,1670.7,455.5,1672.7Zm-1.9,8.2c-.6,1-.3.8.3-.2a4.473,4.473,0,0,0,.9-1.9S453.7,1680.7,453.6,1680.9Zm2.5-2.3c0,.1.1.2,0,0C456.3,1678.4,456.1,1678.3,456.1,1678.6Zm6.2-7.5a61.424,61.424,0,0,0-3.1,9.5c0,.3.1-.1.4-1a73.647,73.647,0,0,1,3.1-8.6c.8-1.9,1-2.6,1.3-3.4A22.664,22.664,0,0,0,462.3,1671.1Z"/><path d="M400.5,1762.7c.2,1-1.3,3.7-3.2,5.8-1,1.1-3.2,2.9-2.9,2.4.1-.2-.2,0-1,.5-.6.4-2.6,1.3-3,1.7-.7.7-2.8,4.4-4.9,8.5a71.507,71.507,0,0,0-3.4,7.8c-.6,1.8-.7,1.9-.2.1a80.129,80.129,0,0,1,7.3-15.2c.7-1.1.8-1.3.6-1.3-.3,0-2.9,4.4-4.5,7.7-3.4,6.7-5,11.5-4.5,13.8.1.3.1.3.3.3a19.414,19.414,0,0,0,3.4-1.8,65.967,65.967,0,0,0,9.2-7.8c1.4-1.4,2.6-2.5,2.6-2.5.2,0-.3.8-1.4,2-1.3,1.4-2.6,2.7-4.7,4.6a11.384,11.384,0,0,0-1.5,1.4c0,.1,1.4-1.1,2.5-2,1.3-1.1,3.5-3.4,4.6-4.6,1-1.1,1.3-1.4,1.1-.7-.4.9.5-.4.7,0v.4c-.2.4-1.9,2.3-3.3,3.9-1.1,1.2-1.2,1.3-.6.7a46.52,46.52,0,0,0,3.6-3.8c.4-.5.7-.9.8-.9s0,.1-.1.3c-.8,1.5-8.4,9-11.6,11.5a9.066,9.066,0,0,1-4.1,2c-.9.1-.5,0-1.7-.1a3.173,3.173,0,0,1-2.5-1c-1.4-1.3-1.7-3.4-1-6.6.4-1.7.4-1.7-.1-.9a16.428,16.428,0,0,1-4.1,4.2c-.7.5-1.6.3-2.5.6-.8.3-1.1.2-2-.4-1.2-.8-1.4-1.1-1.5-3-.1-2.2.4-3.9,1.8-6.8a17.64,17.64,0,0,1,4.5-6.1,9.832,9.832,0,0,1,4.2-2.6c1.9-.5,4.8.8,5.2,1.6.3.5.6-.3,1.2-1.2,3.1-5,6.2-8.9,9.1-11.3,2-1.7,3.8-2.8,4.8-2.8A2.7,2.7,0,0,1,400.5,1762.7Zm-29.6,19.1a20.228,20.228,0,0,0-2.3,4.9c-.5,1.7-.6,1.8-.3.6l.2-.8a5.942,5.942,0,0,1-.3.7,8.473,8.473,0,0,0-.3,2v1.3l.3-1a31.8,31.8,0,0,1,3.7-8.2c.5-.9,1-1.6,1-1.7C372.8,1779.4,371.5,1780.9,370.9,1781.8Zm-2.9,6.5v.2C367.9,1788.7,367.9,1788.2,368,1788.3Zm2.7-2a12.76,12.76,0,0,0-1.2,4.1v.5s.1-.5.3-1.2c0-.1,1-3.5,1-3.5C370.7,1786.1,370.7,1786.2,370.7,1786.3Zm-.8,1.2c0,.3.2-.4.2-.4C369.9,1787.1,369.9,1787.4,369.9,1787.5Zm4.5-5.3c-1.1,1.5-3.6,6.5-3.6,8.3,0,.4.2-.1.5-1a29,29,0,0,1,2.8-6.5,3.413,3.413,0,0,0,.5-1.1C374.6,1782.1,374.5,1782.1,374.4,1782.2Zm3.1-2.6a42.735,42.735,0,0,0-2.8,3.6,28.948,28.948,0,0,0-3.2,6.7c-.1.3-.1.3.1.1a5.391,5.391,0,0,0,.6-1.3,28.515,28.515,0,0,1,4.5-8c.7-1,.9-1.3.9-1.3C377.7,1779.4,377.6,1779.5,377.5,1779.6Zm1.4-1a38.67,38.67,0,0,0-4.9,7,23.437,23.437,0,0,0-1.5,3.6c0,.2.6-.5,3.3-3.8,4.3-5.2,4.3-5.2,4.4-5.6a4.226,4.226,0,0,0-.3-2C379.7,1777.6,379.4,1778,378.9,1778.6Zm-4.4,9.5c-.2.4.1,0,1.4-1.5,3-3.6,4-4.8,3.8-5C379.6,1781.6,374.6,1787.9,374.5,1788.1Zm4.7-1.9a4.842,4.842,0,0,0-.7,1.8c-.5,1.7-.5,2.1,0,.7a13.779,13.779,0,0,1,.8-2C379.8,1785.4,379.9,1785.1,379.2,1786.2ZM387,1774a100.76,100.76,0,0,0-5.7,10.8,32.516,32.516,0,0,0-1.8,5.2c0,.3,0,.2.1-.1a79.725,79.725,0,0,1,7.4-15.4,15.519,15.519,0,0,0,.8-1.4h0C387.4,1773.4,387.5,1773.4,387,1774Zm-6.3,5.4c-.1.2-.2,1-.3,1.2s0,.2.1,0c.1-.1.2-.4.3-.5C380.9,1779.8,380.9,1779.1,380.7,1779.4Zm7-4.1a99.328,99.328,0,0,0-5.3,10.2,40.97,40.97,0,0,0-1.8,5.2c-.1.6,0,.3.3-.4a86.575,86.575,0,0,1,7.6-15.9c.4-.6.8-1.3.7-1.3A9.155,9.155,0,0,0,387.7,1775.3Zm7.2-12.2c-2,1.5-4.1,3.7-7.5,8-1.6,2.1-4.2,6.1-4.1,6.4.1.2-.2.7-.2.9s0,.2.2,0c.1-.1.6-.9,1.2-1.8a60.366,60.366,0,0,1,9.7-12.5c.8-.7,1.2-1.1,1.1-1.1C395.2,1762.9,395.1,1762.9,394.9,1763.1Zm-6,8.4c0,.1.2-.2.8-.9.3-.4.5-.7.5-.7A10.1,10.1,0,0,0,388.9,1771.5Zm6.9-6.7a39.825,39.825,0,0,0-4.8,5.6c-.2.3-.2.3.2-.1.9-1,2.6-3.2,3.7-4.3a9.365,9.365,0,0,0,1.3-1.5C396.1,1764.5,396,1764.6,395.8,1764.8Zm-2.1,3c-2.7,3.3-1.7,2.4-.1.4.7-.8,1.8-2,2.3-2.6l1.1-1.1-1.2,1.3a29.012,29.012,0,0,0-1.9,2.2c-1,1.2-.9,1.2-.7,1a16.778,16.778,0,0,0,2.9-3,6.889,6.889,0,0,0,1.2-2.1S394.6,1766.7,393.7,1767.8Zm4.2-3.5a17.871,17.871,0,0,1-5.2,5.8c-.6.4-.2.3.6-.2,1.8-1.2,5-4.6,5.3-6.1C398.6,1763.1,398.2,1763.8,397.9,1764.3Zm1.6.5a19.456,19.456,0,0,1-4.4,5.3c-.7.6-.5.5.3-.1a18.545,18.545,0,0,0,3-3.2,12.591,12.591,0,0,0,1.6-2.9v-.3C399.9,1763.6,399.7,1764.4,399.5,1764.8Zm-.4-.9a28.51,28.51,0,0,1-2.4,3.7c.4-.5.8-.9,1.3-1.5a9.735,9.735,0,0,0,1.5-2.8C399.5,1763.1,399.2,1763.5,399.1,1763.9Z"/><path d="M408.7,1775c.8.7,1.3,0,2.2.5.6.4-.6,1.7-.3,1.9a.1.1,0,0,0,.1-.1c0-.1.1-.2.2-.3.2-.2,0,.3-.9,2.2a32.689,32.689,0,0,0-2.7,7.4c-.3,1.4-.3,1.8.1.6a76.264,76.264,0,0,1,3.4-9.3c1-2.2,1-2.1,1.2-2.1.7,0,.7.5,1,.8a2.517,2.517,0,0,1-.2,1.6c-.2.4-.6,1.6-1,2.6-2.6,6.5-3.4,9.6-3,11.2.1.5.3.5,1.1.1,1.4-.7,3.1-2.4,5.9-5.8,1.6-1.9,2.2-2.6,3.3-4,.4-.5.7-.4.3.1-.6.8-7.1,8.7-7.1,8.7a29.574,29.574,0,0,0,3.7-3.9c1.5-1.8,2.5-2.9,3.6-4.5.6-.8.8-.8.4,0-.3.6-.2.6.2-.1.4-.5.6-.6.6-.4,0,.4-3.3,4.9-5.7,7.8-.8.9-1,1.3-.7,1,.4-.3,1.9-2.2,3.5-4.2,3.7-4.8,1.7-1.9.2,0a26.43,26.43,0,0,1-6.1,6.5,11.681,11.681,0,0,0,1.5-1,7.349,7.349,0,0,1-2.2,1.6c-.4.1-.7.3-.8.3a14.549,14.549,0,0,1-3,.1,5.006,5.006,0,0,1-2.6-2.4,9.343,9.343,0,0,1-.6-3c.1-.3-.2.2-1.2,1.8-1.1,1.8-1.4,2.1-2.3,2.6a7.485,7.485,0,0,1-3.1.5c-.8.1-.8,0-1.4-.4-2.2-1.4-2.7-3.4-1.7-7.4a18.261,18.261,0,0,1,2.5-6c1.8-3,3.8-5.1,5.9-6.1C404.7,1773.1,407.6,1774,408.7,1775Zm-10.3,4.7a21.518,21.518,0,0,0-2.2,4.2q-.15.6-.3.6c-.3-.2-.8,1.9-.9,3.4v1a33.524,33.524,0,0,1,3.7-9C399.8,1777.9,399.8,1777.6,398.4,1779.7Zm-.7,4.8a15.778,15.778,0,0,0-1.1,4.1c-.1,1,0,.9.4-.8.2-.8.5-1.9.7-2.6C398.1,1784,398.2,1783.3,397.7,1784.5Zm1.3.6a20,20,0,0,0-1.1,4.8c-.1.8.1,0,.5-1.5a27.4,27.4,0,0,1,2-5.9c.4-.9.7-1.5.6-1.5C400.6,1781.2,399.4,1784,399,1785.1Zm4.2-6.1c-1.6,1.8-4.6,8-4.6,11.1,0,.8.3.2.5-1.1.6-4,2.2-6.6,4.3-10l.1-.2C403.4,1778.7,403.3,1778.8,403.2,1779Zm2.7-2.6c-.4,0-2,2-3.3,4.2a25.606,25.606,0,0,0-3.4,8.5c-.2.9-.2.9,0,.7a7.9,7.9,0,0,0,.8-1.1c.9-1.4,3.5-5.6,4.6-7.7.6-1,1.1-2,1.3-2.2a2.613,2.613,0,0,0,.3-.8A2.984,2.984,0,0,0,405.9,1776.4Zm-1.2,5.7c-1.5,2.8-3.6,6.3-4.3,7.5-1.3,2-.3.9.3,0a54.767,54.767,0,0,0,2.9-4.7,34.175,34.175,0,0,0,2.6-5.1v-.2A13.508,13.508,0,0,0,404.7,1782.1Zm-1.7,7.4c-.5.9-.3.7.3-.2.5-.8.9-1.6.8-1.7C404.1,1787.6,403.1,1789.3,403,1789.5Zm2.3-2.1c0,.1.1.1,0,0C405.5,1787.3,405.3,1787.1,405.3,1787.4Zm5.6-6.8a47.134,47.134,0,0,0-2.8,8.6c0,.3.1-.1.3-.9a71.7,71.7,0,0,1,2.8-7.8c.7-1.8.9-2.4,1.2-3.1C412.1,1778,411.6,1778.9,410.9,1780.6Z"/><path d="M444.4,1772.1c.3.2,1.1.6,1,1.3,0,.3-.4,0-.3.2s-.4.8-2.4,3a33.263,33.263,0,0,0-4.1,5.3c-.5,1.1-.3.9.5-.4a47.548,47.548,0,0,1,4.3-5.4,12.385,12.385,0,0,0,1.8-2.2q.75-1.05.6-.3t-2.7,3.6a50.948,50.948,0,0,0-4,5c-.5.9-.4,1.1.8,1.8a18.1,18.1,0,0,1,2.7,1.8c.2.1.3.2.4.2,0,0,.9-.6,2-1.4,3.1-2.3,6.7-4.6,7.2-4.6.3,0-.2.5-1,1-1.9,1.1-7.7,5.2-7.7,5.5,0,.2.3,0,2.5-1.6a58.006,58.006,0,0,1,6.1-4.2c.8-.4,1.2-.5.9-.2-.6.6.6,0,.6.4,0,.2-.4.5-1.8,1.5-2.1,1.4-7.3,5.3-7.1,5.5a21.211,21.211,0,0,0,1.8-1.3c2.2-1.7,4-3.1,5-3.7,1.1-.7.8-.4-.4.5-1.5,1.1-5.3,4-6.2,4.9l.2.7c1.2,3.7-.5,7.5-4,9.9a4.207,4.207,0,0,1-3,.6c-.9-.2-1.4-.1-2-.8-1.2-1.2-1.2-2.4-.1-4.8a14.739,14.739,0,0,1,3.5-4.6l1.4-1.5a10.314,10.314,0,0,0-3.5-2.3c-1.7-.8-1.7-.8-2.4-1.8-1-1.3-1-2.2,0-4.3s4.6-6.6,6.7-7.6A2.246,2.246,0,0,1,444.4,1772.1Zm-6.4,5.1-.6.8.2-.4a8.449,8.449,0,0,0-1.5,2.5c-.4,1.1-.3,1.1.6-.3a45.7,45.7,0,0,1,6.3-7.2C441.3,1773.2,439.2,1775.5,438,1777.2Zm-.1,14.6a12.321,12.321,0,0,0-1.7,3.1c-.1.6.1.4.7-.7a20.545,20.545,0,0,1,3.3-4.5c1.3-1.3,1.5-1.6,1.2-1.6C441.2,1788.3,438.7,1790.9,437.9,1791.8Zm1.2-13.1a12.946,12.946,0,0,0-1.8,2.7c-.2.5.1.2.6-.7.3-.5.9-1.4,1.5-2.2C440.6,1777,440.2,1777.2,439.1,1778.7Zm-1.8,16.5c-.1.3.1.1.4-.6a23.484,23.484,0,0,1,2.4-3.7l.3-.3C440.3,1790.6,437.6,1793.2,437.3,1795.2Zm1.9-1.9a14.075,14.075,0,0,0-1.4,2.7c0,.2.2-.2.5-.8a16.368,16.368,0,0,1,2.9-4,5.1,5.1,0,0,0,.9-1h0C441.7,1790.2,440.2,1791.9,439.2,1793.3Zm1.9-1.7a10.881,10.881,0,0,0-3,5.2c-.1.5,0,.5.1.5a2.847,2.847,0,0,0,.8-.4,7.083,7.083,0,0,0,3.1-6.4Zm4.8-17c.1.1-.7,1.1-2.2,2.8-1.8,2.1-3.5,4.2-4.1,5a5.912,5.912,0,0,0-.5.8,1,1,0,0,1,.1-.4q.45-1.2,3.9-5.1C444.8,1775.9,445.9,1774.5,445.9,1774.6Zm-3.8,19.6a10.911,10.911,0,0,1-2.1,2.7c-.8.7-.7.8.1.3,1.2-.8,2.4-2.4,2.4-3.5C442.6,1793.2,442.4,1793.7,442.1,1794.2Zm2.3.2a7.708,7.708,0,0,1-2.4,3.2c-.8.8-.9.9-.1.4a9.073,9.073,0,0,0,2.6-3.3C444.8,1793.8,444.7,1793.7,444.4,1794.4Zm-1-.3c-.3.5-.8,1.3-1.1,1.7-1,1.4.1.3.4-.2.2-.2,1.3-2.2,1.1-2.3C443.8,1793.5,443.7,1793.7,443.4,1794.1Z"/><path d="M458.7,1774c.5-.3,1.4.3,1.5.3a.63.63,0,0,1,.3.8c-.1.3-.1.3.1.1s.2-.2.1.1c0,.1-1,1.9-2,3.9-3.9,7.1-4.4,8.3-5,10.6q-.45,1.8.3-.3c.8-2.3,1.5-3.8,5-10.1,1.1-1.9,2-3.7,2.1-3.9.2-.5.9-.6.8-.1-.1.6-1.1,2.4-3.5,6.8a54.791,54.791,0,0,0-3.7,7.5c-.3.8-.8,2.1-.6,2.3s1.3-.5,2.5-1.6c2.1-1.9,3.9-4,9.5-11.6,2.7-3.6,3.4-4.3,4.1-4.3a5.941,5.941,0,0,1,1.1.1c.4.1.5.1.2.8-.4.9-.2.8.3.1.2-.3.5-.6.6-.6,1,0-.1,1.9-.8,2.9-.6.9-1.5,2.3-2,3a50.421,50.421,0,0,0-4.4,9.2c-.3,1.2-.3,1.7,0,.6,1.2-3.9,4.4-9.6,6.7-13a11.9,11.9,0,0,0,.9-1.5c.3-.6.4-.7.4-.5.1.4-.4,1.4-1.5,2.9a59.482,59.482,0,0,0-5.1,9.1,12.2,12.2,0,0,0-1.3,3.9c0,.6,0,.6.3.5.9-.2,3.2-2,5-4,1-1.1,3.8-4.5,5.3-6.4.9-1.1,1.6-1.8,1.4-1.3s-3.8,5-5.7,7.3c-.9,1-2.4,2.6-2.8,2.9l-.4.4c-.1.2-.1.2.2,0,1.2-.8,5-5.1,7.7-8.7,1.6-2.1,2-2.4,1.5-1.3,0,.1.1,0,.3-.1.4-.4.6-.2.4.2-1.8,3-8.2,10.3-8.2,10.3.2.2,5.3-5.7,7.5-8.9.8-1.2,1.3-1.8,1-1.2a83.557,83.557,0,0,1-8.3,10.4,7.373,7.373,0,0,1-3.2,2.2,11.432,11.432,0,0,1-3.6.3,4.3,4.3,0,0,1-2.4-1.8c-.3-.5-.3-.7-.3-2.1v-1.5c-1.3,1.6-3.3,4.1-5.6,4.9a7.809,7.809,0,0,1-3.7.1,5.008,5.008,0,0,1-2-1.8c-.9-1.9-.4-4.7,1.6-9.2a40.732,40.732,0,0,1,3.7-6.9,5.38,5.38,0,0,1,2.1-1.9C457.7,1773.7,458.7,1773.5,458.7,1774Zm-5.2,7.4c-.5.9-.9,1.7-.9,1.7s2.1-4.8.6-1.8a22.356,22.356,0,0,0-2.6,7.7l.2-.6c1.5-4.2,4.9-10.9,7-13.6C455.8,1776.6,454.7,1779.2,453.5,1781.4Zm1.2,1.7a24.635,24.635,0,0,0-2.5,6.1c-.1.7.1.4.4-.6,1.2-3.9,5.6-11.5,5.5-11.5C458,1776.9,455.6,1781.3,454.7,1783.1Zm2.5,7.2-.8.8c0,.2.9-.6,1.7-1.3a53.369,53.369,0,0,0,4-4.8,14.35,14.35,0,0,0,1.9-2.9C463.9,1782.1,459.3,1788.3,457.2,1790.3Zm3.7-2a20.222,20.222,0,0,1-1.6,1.9c-.6.6-1,1.2-1.1,1.2-.2.4,3.7-3.5,3.3-3.8A7.3,7.3,0,0,0,460.9,1788.3Zm2.8-2.8c-.4,1.1-1.1,2.6-1.4,3.6-.1.6,0,.5.3-.2a28.694,28.694,0,0,0,1.5-3.7c0-.1.4-.9.4-1A6.026,6.026,0,0,0,463.7,1785.5Zm3.7-3.9a48.733,48.733,0,0,0-2.8,5.6,7.774,7.774,0,0,0-.9,2.6q0,.3.6-1.2a49.728,49.728,0,0,1,3.4-7.3,5.2,5.2,0,0,0,.3-.5C468,1780.7,467.8,1781,467.4,1781.6Zm-1.9.6a10.623,10.623,0,0,0-1,1.7C464.4,1784.4,466.2,1781.3,465.5,1782.2Zm3.7,1.6c-.8,1.6-3.2,6.8-3.2,6.8a43.54,43.54,0,0,1,3.1-7c.8-1.6,4.4-7.2,4.5-7.3C473.7,1776.3,469.8,1782.7,469.2,1783.8Zm7.9-1.5h0c.1-.1.5-.6.5-.6C477.5,1781.7,477.2,1782.2,477.1,1782.3Z"/><path d="M489,1775c.8.7,1.3,0,2.2.5.6.4-.6,1.7-.3,1.9a.1.1,0,0,0,.1-.1c0-.1.1-.2.2-.3.2-.2,0,.3-.9,2.2a32.689,32.689,0,0,0-2.7,7.4c-.3,1.4-.3,1.8.1.6a76.264,76.264,0,0,1,3.4-9.3c1-2.2,1-2.1,1.2-2.1.7,0,.7.5,1,.8a2.517,2.517,0,0,1-.2,1.6c-.2.4-.6,1.6-1,2.6-2.6,6.5-3.4,9.6-3,11.2.1.5.3.5,1.1.1,1.4-.7,3.1-2.4,5.9-5.8,1.6-1.9,2.2-2.6,3.3-4,.4-.5.7-.4.3.1-.6.8-7.1,8.7-7.1,8.7a29.574,29.574,0,0,0,3.7-3.9c1.5-1.8,2.5-2.9,3.6-4.5.6-.8.8-.8.4,0-.3.6-.2.6.2-.1.4-.5.6-.6.6-.4,0,.4-3.3,4.9-5.7,7.8-.8.9-1,1.3-.7,1,.4-.3,1.9-2.2,3.5-4.2,3.7-4.8,1.7-1.9.2,0a26.43,26.43,0,0,1-6.1,6.5,11.681,11.681,0,0,0,1.5-1,7.349,7.349,0,0,1-2.2,1.6c-.4.1-.7.3-.8.3a14.549,14.549,0,0,1-3,.1,5.006,5.006,0,0,1-2.6-2.4,9.343,9.343,0,0,1-.6-3c.1-.3-.2.2-1.2,1.8-1.1,1.8-1.4,2.1-2.3,2.6a7.485,7.485,0,0,1-3.1.5c-.8.1-.8,0-1.4-.4-2.2-1.4-2.7-3.4-1.7-7.4a18.261,18.261,0,0,1,2.5-6c1.8-3,3.8-5.1,5.9-6.1C485,1773.1,487.9,1774,489,1775Zm-10.3,4.7a21.518,21.518,0,0,0-2.2,4.2q-.15.6-.3.6c-.3-.2-.8,1.9-.9,3.4v1a33.524,33.524,0,0,1,3.7-9C480.2,1777.9,480.2,1777.6,478.7,1779.7Zm-.6,4.8a15.778,15.778,0,0,0-1.1,4.1c-.1,1,0,.9.4-.8.2-.8.5-1.9.7-2.6C478.4,1784,478.5,1783.3,478.1,1784.5Zm1.2.6a20,20,0,0,0-1.1,4.8c-.1.8.1,0,.5-1.5a27.4,27.4,0,0,1,2-5.9c.4-.9.7-1.5.6-1.5A22.378,22.378,0,0,0,479.3,1785.1Zm4.2-6.1c-1.6,1.8-4.6,8-4.6,11.1,0,.8.3.2.5-1.1.6-4,2.2-6.6,4.3-10l.1-.2C483.7,1778.7,483.7,1778.8,483.5,1779Zm2.7-2.6c-.4,0-2,2-3.3,4.2a25.606,25.606,0,0,0-3.4,8.5c-.2.9-.2.9,0,.7a7.9,7.9,0,0,0,.8-1.1c.9-1.4,3.5-5.6,4.6-7.7.6-1,1.1-2,1.3-2.2a2.613,2.613,0,0,0,.3-.8C486.6,1777.5,486.4,1776.4,486.2,1776.4Zm-1.1,5.7c-1.5,2.8-3.6,6.3-4.3,7.5-1.3,2-.3.9.3,0a54.767,54.767,0,0,0,2.9-4.7,34.175,34.175,0,0,0,2.6-5.1v-.2C486.4,1779.6,486,1780.3,485.1,1782.1Zm-1.7,7.4c-.5.9-.3.7.3-.2.5-.8.9-1.6.8-1.7C484.5,1787.6,483.5,1789.3,483.4,1789.5Zm2.3-2.1h0C485.8,1787.3,485.7,1787.1,485.7,1787.4Zm5.6-6.8a47.134,47.134,0,0,0-2.8,8.6c0,.3.1-.1.3-.9a71.7,71.7,0,0,1,2.8-7.8c.7-1.8.9-2.4,1.2-3.1C492.5,1778,492,1778.9,491.3,1780.6Z"/><path d="M342.9,1737.8v-18.2c0-9.8,3.6-15.7,14-15.7s14,5.8,14,15.7v18.2c0,9.8-3.6,15.9-14,15.9C346.4,1753.7,342.9,1747.6,342.9,1737.8Zm19,2.1v-22.4c0-4.1-.7-7.1-5-7.1s-5,3.1-5,7.1v22.4c0,4,.7,7.3,5,7.3C361.2,1747.1,361.9,1743.9,361.9,1739.9Z"/><path d="M399.3,1704.4h9.5l9.7,48.6h-8.2l-1.9-11.2h-8.5l-2,11.2h-8.3Zm8.1,31.7-3.3-20.4-3.3,20.4Z"/><path d="M424.1,1704.4h9.2l6.9,33.7,7.1-33.7h8.9l.9,48.6h-6.6l-.7-33.8-6.9,33.8h-5.3l-7-33.9-.7,33.9h-6.7Z"/><path d="M463.5,1737.8v-18.2c0-9.8,3.6-15.7,14-15.7s14,5.8,14,15.7v18.2c0,9.8-3.6,15.9-14,15.9S463.5,1747.6,463.5,1737.8Zm19.1,2.1v-22.4c0-4.1-.7-7.1-5-7.1s-5,3.1-5,7.1v22.4c0,4,.7,7.3,5,7.3C481.9,1747.1,482.6,1743.9,482.6,1739.9Z"/><path d="M498.1,1704.4h11.7c9.7,0,15.2,3.1,15.2,12.9,0,5.8-1.4,9.9-6,11.8l6.8,23.9h-8.9l-5.8-22.3h-4.2V1753h-8.8v-48.6Zm11.6,20.8c5.1,0,7-2.2,7-7.4,0-4.9-1.4-7.3-6.5-7.3h-3.3v14.8h2.8Z"/><path d="M348.6,1808.9h12.2l10.1,53.9,9.5-53.9h12.5L377.6,1885H364Z"/><path d="M401,1808.9h13.7V1885H401Z"/><path d="M426.5,1808.9h18c18.5,0,24.2,7.4,24.2,23.7v27.7c0,16.7-5.7,24.7-23.6,24.7H426.6v-76.1Zm18.1,66.4c9.5,0,9.9-5.1,9.9-14.6v-29.1c0-9.1-.9-12.9-10.1-12.9h-4.1v56.6Z"/><path d="M489.6,1808.9h14.9l15.2,76.1H506.8l-3-17.6H490.5l-3.1,17.6H474.3Zm12.7,49.7-5.2-32-5.2,32Z"/></g></svg>