<svg xmlns="http://www.w3.org/2000/svg" width="177.279" height="72.569" viewBox="0 0 177.279 72.569"><defs><style>.a{fill:#fff;}</style></defs><g transform="translate(-0.876 -19.031)"><path class="a" d="M29.5,23.6c.4,2.9,0,4.9-.9,8-.2.9-.4,1.6-.4,1.6a6.485,6.485,0,0,0,1-2.2c.6-2,0,.3.1.4,0,0,.6-.7,1.3-1.7a49.349,49.349,0,0,1,5.7-6.6c2.2-2,4-3,5.4-2.9A7.828,7.828,0,0,1,45,21.4c3.8,2.7,4.5,8.2,3.2,15.5-1.7,9.9-5.5,20.1-9.8,26.2-2.3,3.2.3.3,1.6-1.7a41.859,41.859,0,0,0,3.5-6.7c2-4.7,4-11.4,4-11.4,0,.3-.9,3.4-1.4,5.2-2.1,6.7-5,12.7-7.9,15.9C37,65.7,37,65.8,34,67.5c-4,2.4-9.8.1-12.3-2.2a13.762,13.762,0,0,1-2.5-3.6c-.1-.3-.3-.6-.3-.7-.2-.3-3.9,8.9-6.4,16.3-.4,1.1-2.9,8.3-2.9,8.3,0-.1,1.7-5.4,2.7-8.5.3-1,.6-1.8.6-1.8-.1-.1-1.7,4.7-2.6,7.6-.1.2-1.7,5.7-2,5.5,0-.2,0-.2-.1,0s-.1.2-.3-.1a.8.8,0,0,0-1.4-.1c-.3.4-.5.5-.9.1-1.8-1.6-2.3-3.9-1.3-8.1,1.1-4.8,2.4-8.3,6.6-18.1,6.5-15.5,9.8-23.9,12.8-32.4,1.2-3.5,2-6.6,1.6-6.6a58.671,58.671,0,0,0-5.1,6c-4.7,6-11.6,17.2-14.1,24.6a8.409,8.409,0,0,1-.4,1,32.532,32.532,0,0,1,1.7-4.6A104.509,104.509,0,0,1,23.3,25a9.872,9.872,0,0,0,.9-1.2,41.963,41.963,0,0,0-4.4,5A91.692,91.692,0,0,0,11,42c-2.5,4.5-5.1,9.2-6,14.1-.3,1.7-.4,2.3-.2,2.5A4.566,4.566,0,0,1,5.3,60c0,.2-.4,0-.4.2,0,.3-1-.2-1.3-.1-.6.3-1.1,0-1.8-1a4.79,4.79,0,0,1-.9-3.6c.1-3.9,2.1-9,6.2-16.3a69.475,69.475,0,0,1,8.1-12c4.4-5.2,7.1-7.6,9.1-8.1,1.7-.4,4,1,5,2.4C29.3,22.2,29.4,22.5,29.5,23.6ZM15.7,27.9A69.835,69.835,0,0,0,8,39.2c-.7,1.3-1.4,2.5-1.5,2.6a36.569,36.569,0,0,0-3.7,7.7,19.534,19.534,0,0,0-1,3.9s.1-.3.3-.8a74.4,74.4,0,0,1,3.8-8.5A91.862,91.862,0,0,1,18.1,25.7c1.3-1.6,2.3-2.8,2.3-2.8C20.2,22.8,17.5,25.7,15.7,27.9ZM8.5,41.7a44.63,44.63,0,0,0-3.9,7.9,15.08,15.08,0,0,0-1.4,4.3c0,.2.1.1.2-.3A58.288,58.288,0,0,1,9,41.1c.7-1.3,1.2-2.2,1.2-2.2A24.367,24.367,0,0,0,8.5,41.7Zm6.6-8.2A117.4,117.4,0,0,0,7.9,45.8c-1.5,3-3.3,7.4-3.5,8.9,0,0,1.4-3.6,1.9-4.7A105.89,105.89,0,0,1,17.7,30.3c.5-.7.8-1.2.8-1.2A27.674,27.674,0,0,0,15.1,33.5ZM12.5,60.6C7.3,72.9,5.8,76.9,5.1,81c-.5,2.7-.4,2.8.3.1,1.4-4.9,3-9.2,7.7-20.2,4.5-10.7,7-16.8,10.4-26.6a35,35,0,0,0,1.7-5.5c.1-.4.6-2.2.4-2.3C21.4,38.7,18.3,46.8,12.5,60.6Zm8.1-19.2c-2.3,6-3.5,8.9-6.2,15.3C8.8,70.1,7.9,72.3,6.7,76.1c-2.1,6.4-.2-.2,1-3.4.9-2.5,2.4-6,6.7-16.4,3.5-8.3,6.9-17.1,9.5-24.4a3.65,3.65,0,0,1,.5-1.1C24.5,30.8,22.2,37.3,20.6,41.4ZM10.5,71.7A100.709,100.709,0,0,0,6.8,82.6c-.5,2.2-.3,1.9.4-.3.3-1.1.7-2.5.9-3.1C8.7,77.5,14,63.5,14,63.5,13.9,63.4,11.9,68.2,10.5,71.7Zm-1.7,11a19.822,19.822,0,0,0,.8-3.4C9.1,79.4,6.2,92.8,8.8,82.7Zm9.9-23.2c-.1-.2-3.5,7.9-2.7,6.8C16,66.3,18.7,59.6,18.7,59.5ZM21,54.1h0c-.8.9-3.2,7.4-.7,1.8C20.7,54.9,21,54.1,21,54.1Zm4.9-22c-1.9,6-2.6,8.1-5.1,14.5A33.089,33.089,0,0,0,19.5,50a17.726,17.726,0,0,0,1.1-2.2c1.6-3.6,4.3-11.4,5.6-15.6C27.1,29.1,27.3,27.5,25.9,32.1Zm-6,25.8c-.5,1.6,1.3-2.6,1.3-2.6S19.1,61,20.3,59c.8-1.3.6.7,1,.2.4-.4.5.9.8.9.1,0,.3.3.4.7a3.555,3.555,0,0,0,1.4,2c1,.7,2.8.3,4-.1,2.9-1.1,5.7-4.5,8.5-10.6a103.64,103.64,0,0,0,6.5-20.2c.7-3.8.6-7.8-.3-8.1s-2.4.8-4.4,2.6C30.5,33.4,25,46.8,19.9,57.9ZM24.3,47c-.8,1.7-.9,2.2-.2.8A149.977,149.977,0,0,1,33.7,31c.7-.9,1.2-1.7.6-1C31.8,32.9,27.1,40.9,24.3,47Zm2.8-12.9c-.3,1.1-.7,2.6.1.5.4-1.3,1.2-4.4,1.2-4.5C28.4,30.1,27.4,33.3,27.1,34.1Zm1.5.3c-.9,2.2,0,.6.9-.9a72.187,72.187,0,0,1,4.9-6.8c1.7-2.1,1.9-2.5.1-.5A39.332,39.332,0,0,0,28.6,34.4ZM42,41.6a84.38,84.38,0,0,1-4.8,12.1c-.9,2-1,2.1-.7,1.7.7-1,3.6-7.6,3.6-7.6.1.1-1.9,4.7-2.9,6.8a55.342,55.342,0,0,1-3.6,5.8c-1,1.5-1.1,1.9.3.4,1.7-1.7,3.8-5.8,5.7-10.9.6-1.6.6-2.1,1.3-4.1.5-1.5,1.8-5.8,1.7-5.9A17.629,17.629,0,0,0,42,41.6Zm-1.3,11c-.7,1.7-1.6,3.5-3.2,6.6a37.454,37.454,0,0,0,5.3-12c.1-.5.3-.8.2-.9C43,46.3,41,51.9,40.7,52.6Zm4.2-5.7a61.937,61.937,0,0,1-6.3,14c-.3.5-.5.9-.5.9,0,.3,1.3-1.5,2.2-3.1a48.025,48.025,0,0,0,3-6.5c.7-1.8,1.9-5.6,1.7-5.6A.438.438,0,0,0,44.9,46.9Z"/><path class="a" d="M85,64.8c-.6,2.5-1.4,4.5-3.6,9.1-1.8,3.7-3.4,8.2-3,8.2.5,0,2.2-1.5,5.4-4.8,3.3-3.4,5.5-5.7,9.7-10.6,1.5-1.8,1.4-.9-.1,1-2.1,2.6-7,8.1-9.9,11-1.2,1.2-2.1,2.2-2.1,2.2A15.667,15.667,0,0,0,83.5,79c2.2-2.1,5.8-5.9,9.5-10.2,2.2-2.6,3-3.3,2.6-2.5-.1.2-.5,1.3.1.5.4-.5.9-.6.9-.3,0,.5-.2.8-5.2,6.5-7,8-9.6,10.6-11.4,11.2a8.559,8.559,0,0,1-3.9,0A5.9,5.9,0,0,1,73.6,82a8.885,8.885,0,0,1-.2-5c.5-2.5,1.6-5.3,4-10.1,1.3-2.5,2.5-5,2.8-5.6a6.328,6.328,0,0,0,.7-2.2,6.938,6.938,0,0,0-2.5,1.8A108.185,108.185,0,0,0,65.9,78.1c-1.1,1.9-2.2,3.7-2.5,4.1-.7,1.1-.8,1.3-.2.6a26.317,26.317,0,0,0,1.6-2.3c3.5-5.7,4.4-7,6.4-9.9a82.2,82.2,0,0,1,6.3-8c.5-.4.5-.4,0,.2A131.464,131.464,0,0,0,66.4,78.5c-2.1,3.5-3.8,6.3-4.6,6.8-1.3.8-3.3,1.7-5,.2a4.489,4.489,0,0,1-2-3.4c-.2-1.6,2.7-8.1,4.3-12.1.9-2.2,2.3-4.7,2-5-.6-.5-10.7,13.5-12,15.4-1.8,2.6-5.3,6.2-9,3.5-1.9-1.4-2.4-3.3-1.9-7a37.249,37.249,0,0,1,3.3-10.1c1.2-2.3,2.9-4.6,3.3-4.2.7.6,2.2-.9,1.6,1.4a3.2,3.2,0,0,0-.1.7s.3-.4.6-.9c.5-.8.6-.9.9-.8.8.4.5,1.5-.9,4.8C44.7,72.3,43,78,43.1,80.4c0,.5,0,.5.1.2A49.919,49.919,0,0,1,47,68.2c.8-1.9,1.5-3.7,1.7-4.1.2-.7.2-.7.3-.2.1.7-.4,2.1-1.8,5.4a52.949,52.949,0,0,0-2.9,8.4c-.5,2.4-.6,3.6-.4,3.6.3,0,2.2-2,3.8-4,.8-1,2.8-3.6,4.4-5.9,5.2-7.1,6.9-9.1,8.5-9.8,1.5-.6,5.1.6,5.5,1.9a3.329,3.329,0,0,0,.3.6c.4.4.4,1.2.2,2.6a52.885,52.885,0,0,1-2.2,7.1c-.3.7-.5,1.3-.4,1.3,1-1.1,3-4.4,4.2-6,4.1-5.8,9-11.4,10.7-12.1,1.7-.8,4.7.2,5.6,1.2C85.7,59.6,85.9,61.6,85,64.8Zm-43,4c-1.2,2.8-2.6,6.4-2.7,8.9-.1,3.2.2,1,.6-.7a97.618,97.618,0,0,1,4.9-13.2A21.7,21.7,0,0,0,42,68.8Zm-.6,10.3v1.1l.3-1.7a49.824,49.824,0,0,1,1.6-6.4l.2-.8C42.8,71.9,41.3,78.3,41.4,79.1Zm4.1-22.2c-.1,0-.2-.2-.3-.3-.3-.5-.3-.5.7-2.5a20.684,20.684,0,0,0,1.2-3c.3-1.3,1.6-3,1.4-1.1C48.2,51.5,46,56.9,45.5,56.9Zm.8,23.4c-.4.6,1.6-1.6,2.8-3.1.7-.9,2.6-3.4,4.2-5.6,1.2-1.6,6.1-7.8,5.9-8-.6-.6-8.5,11-11.4,14.7C47.1,79.2,46.4,80.1,46.3,80.3Zm3.4-31c.3,0,.5.8.9.5.3-.2.9.1.9.4a.319.319,0,0,0,.3.3.265.265,0,0,1,.3.3c0,.2.1.2.2.2.2-.1.4.3.4,1.4,0,1.4-1.4,5.1-2.1,5.5-.3.2,0-.7.4-1.7a7.589,7.589,0,0,0,.9-2.9c0-.2-.2.1-.4.6-.7,2.1-1.6,3.3-2.4,3.4-.5.1-.5-.1-.2-1.1.3-.9.3-1-.1-.3-.4.6-1.2,2.8-2.2,1.8-.1-.1-.1-.5.3-1.2,1.3-3,1.6-3.5,1.6-3.8,0-.2,1-3.2,1-3.3A.349.349,0,0,1,49.7,49.3Zm-.5,5.6c-.2.7.2.4.7-1a10.622,10.622,0,0,0,.4-1.9v-.7A35.5,35.5,0,0,0,49.2,54.9Zm7.1,26.5c-.1.5-.1.5.2.2.4-.5.2-.9.5-1.5.1-.3,1.1-2.6,2.2-5.1,3.5-8.3,3.9-9.5,3.5-10.2-.2-.3-.2-.3-.3,0C61.7,69,57.3,76.6,56.3,81.4Zm3.5-3.7c-.8,2-1,2.8-.8,2.6.1-.1,1.1-2.7,2.4-5.9,2.4-6,3.3-8.6,3-9.1-.1-.2-.3.4-.6,1.2C62.5,71.6,61.6,72.6,59.8,77.7Zm1.4,2a18.422,18.422,0,0,0,2.1-4.3A55.768,55.768,0,0,0,66,67.5c.2-1.1-.3.2-.8,2C64.5,71.3,61.8,78,61.2,79.7Zm.7.9a7.761,7.761,0,0,0,1.2-2.2c.1-.5.1-.4-.2-.1C62.5,78.9,61.7,80.6,61.9,80.6Zm2.9-5c-1.8,3.6.3.3,1.9-2.2A108.139,108.139,0,0,1,77.2,59.8a6.791,6.791,0,0,0,1.3-1.6c-.2-.2-3.5,3.4-5.4,5.7C70.1,67.4,65.7,73.6,64.8,75.6Zm9.6,2.6c-.2,1,0,.8.3-.3a23.319,23.319,0,0,1,1-2.7c.3-.8.9-2.2,1.3-3.1,2.3-4.6,3.1-6.4,3.8-8.1,1-2.4,1.2-3.3,1-3.9-.1-.2-.1-.3-.2-.3,0,0-2.5,5.8-3.7,8.3C75.4,73.7,75,74.9,74.4,78.2Zm2.9-2.1a14.124,14.124,0,0,0-.9,2.7c-.4,2-.2,2,.3,0s1.2-3.6,3.2-7.9c2.3-5,3.3-7.7,3.6-9.8.1-.5-.4.7-.8,1.8C80.9,68.5,78.8,71.7,77.3,76.1Zm7.3-12c-.1,0-.2.4-.4,1.1A51.512,51.512,0,0,1,81,72.7c-1.7,3.7-3,7-3.2,8.6-.2,1,.1.4.5-.9.7-2.6,5.1-11.7,5.8-14.1A16.323,16.323,0,0,0,84.6,64.1Z"/><path class="a" d="M100.3,54.3c.1-.2-.1-.2-1-.1a85.4,85.4,0,0,0-9.6,1.1c-.8.2-1.3.3-.8-.2.5-.6,4.3-1.2,10.5-1.7,2.1-.2,1.8,0,4.3-3.6,3.3-4.9,7.1-9.8,9.7-12.2a22.206,22.206,0,0,1,5.1-3.5,3.327,3.327,0,0,1,2-.1c3.1.5,5.2,2.1,4.7,5.4a11.27,11.27,0,0,1-1.7,4.3,36.988,36.988,0,0,1-6.5,7.7c-1.8,1.3-.7,1,1.8,1,1.4,0,3.8,0,5.4.1,2.4.1,3,.1,3.1-.1.1-.1,1-1.5,2.1-3a80.374,80.374,0,0,1,9.4-11.8,22.205,22.205,0,0,1,5.1-3.5,2.624,2.624,0,0,1,2-.1c3.1.5,5.2,2.1,4.7,5.4a11.27,11.27,0,0,1-1.7,4.3,36.988,36.988,0,0,1-6.5,7.7,15.676,15.676,0,0,1-4.6,2.4c-1.3.4-1.2.6.3,1.2,3.5,1.5,5.1,3,5.7,5.6.3,1.5,0,2.5-1,3.2-1.1.7-.3-.2-.7-.2-.3,0-.3-.4-.1-.5.4-.2.1-.4-.4-.3-.6.1-.8-.2-.2-.5.4-.2.4-.7,0-.6s-.4-.1,0-.4c.4-.4.4-.5-.2-.9a24.447,24.447,0,0,0-7-2.1c-1.6-.3-1.6-.3-1.9,0a82.937,82.937,0,0,0-4.8,9.6,99.851,99.851,0,0,0-4.9,13.5c-.3,1.3-.6,2-.5,1.6.5-4,4-13.1,7.9-21.1,1.6-3.2,2-4.1,1.7-4.1s-2.9,5.2-4.7,9c-2.9,6.5-5,12.6-5.7,16.6-.4,2.6-.1,5.3.7,5.3.6,0,2.9-1.3,4.5-2.5,2.7-2,8.1-7.6,13.3-13.7,6.9-8.1,7.3-8.6,7.7-8.6.3,0,0,.5-.8,1.4-4.7,5.5-10.3,12.2-12.8,14.9a30.982,30.982,0,0,0-2.8,3.2c.3,0,6.5-6.7,9.7-10.5,1.8-2.1,4.2-5,6.7-7.9.8-.9,1.2-1.1,1-.6-.1.4,0,.4.5.1.4-.3.6-.2.5.2a50.408,50.408,0,0,1-4.2,5.5c-3.5,4.2-6.9,8.4-6.8,8.5,0,0,9-10.7,10-12,1.1-1.4,1.5-1.8,1.1-1.2-.3.4-2.1,2.8-4.7,6-5.3,6.5-5.2,6.5-12.5,14.7a19.936,19.936,0,0,1-6.9,4.9,7.634,7.634,0,0,1-3.3.5c-2.4,0-3-.1-4.4-1.2-3.6-2.8-3.3-7.2-1.9-12.8.3-1.4.6-2.3.6-2.3s-6.1,7.3-9.3,10.8a24.108,24.108,0,0,1-7,4.9,14.964,14.964,0,0,1-5.3.5c-2-.3-4.1-2.4-4.8-4.3-.5-1.6-.3-6.2.1-7.9C91.3,74.4,94,67.6,97.3,61c.8-1.6,1.5-3,1.5-3.1,0-.5-8.9.6-8.3,0,.1-.1,3.3-.4,3.4-.5a10.662,10.662,0,0,0-2,0c-2,0-2,0-2-.3s0-.4-.4-.4c-.3,0-.5-.1-.5-.2,0-.9,10.5-1.8,11.3-1.8C100.1,54.5,100.2,54.4,100.3,54.3Zm-.3,3.9c.1-.1,0-.2-.1-.2a14.355,14.355,0,0,0-1.5,2.6c-3.4,6.7-6.2,13.9-7,17.9-.6,3.2-.6,3.8.1,1.2a58.8,58.8,0,0,1,2-5.9,108.338,108.338,0,0,1,6.8-15c.4-.7.6-1.5.4-1.5C100.6,57.4,100,58.2,100,58.2ZM95,74.7a34.307,34.307,0,0,0-1.7,6.4c0,.5,0,.5.2-.1.1-.3.5-1.7.9-3A102.469,102.469,0,0,1,101,61.8a29.737,29.737,0,0,0,2-4.3,47.693,47.693,0,0,0-2.6,4.9C98.4,66.4,96,71.9,95,74.7Zm5.8-8.9c-1.5,3.3-3,7-4,9.9A60,60,0,0,0,95,82.6a13.8,13.8,0,0,0,.6-1.9,98.579,98.579,0,0,1,8-19.9,30.472,30.472,0,0,0,1.7-3.6A67.057,67.057,0,0,0,100.8,65.8Zm6.7-8.6a.85.85,0,0,1-.5.3c-.2,0-.8,1-2.1,3.5a108.1,108.1,0,0,0-8.1,20.1c-.3,1.3-.6,2-.5,1.6a65.766,65.766,0,0,1,3.4-11.1c1.5-3.8,2.7-6.5,4.7-10.5,1.7-3.4,1.9-3.9,1.7-3.9-.3,0-3.1,5.5-4.8,9.3-4.6,10.4-6.7,18.4-5.5,21.3.3.8.5.8,2.1-.1.7-.4,2-1.2,2.9-1.8,2.7-2.1,8.1-7.6,13.5-13.9,1.6-1.9,3.6-4.2,4.4-5.1,1.3-1.6,1.5-1.9,3.5-5.8a40.12,40.12,0,0,0,1.9-4.2c-.1-.1-3.8-.1-8.3-.1C108.7,57,107.7,57,107.5,57.2Zm3-14.8c-2.5,3.1-7.4,10.1-7.2,10.3.3.3.7-.2,2.6-3a115,115,0,0,1,7-9.4c1.1-1.4,2.1-2.6,2.1-2.6s0-.1-.1,0C114.5,37.7,112.4,40,110.5,42.4Zm4,30.7c-1,1.2-8.9,10.2-8.9,10.2a29.2,29.2,0,0,0,2.7-2.7c3.4-3.6,4.4-4.8,7.7-8.7,2.7-3.3,3.4-4.3,3.2-4.3S118.5,68.3,114.5,73.1Zm2.4-32.9a42.228,42.228,0,0,0-3.4,4.1c-1,1.4-4.9,7.2-4.9,7.4,0,.4.5-.3,1.9-2.4a72.376,72.376,0,0,1,5.1-7.2c1.2-1.5,1.6-2,1.5-2C117,40,117,40.1,116.9,40.2Zm2.4-1.2c-1.4,1-4.9,5.3-7.6,9.3-1.1,1.6-1.9,3-1.9,3,0,.4.8-.5,2.6-3.2a62.894,62.894,0,0,1,6.3-8.2,9.077,9.077,0,0,0,.6-.9Zm.3,17.3h-8.8l6,.1c3.3,0,6.4.1,6.9.1.9,0,.9,0,.3-.1C123.7,56.4,121.9,56.3,119.6,56.3Zm-8.7-5.5c0,.2,1.2-.5,2.4-1.4a29.584,29.584,0,0,0,5.8-6.2c1.6-2.1,2.7-4.8,2.3-5.5-.2-.4-3.2,2.8-5.4,5.6A72.173,72.173,0,0,0,110.9,50.8Zm1.9,27.7a31.359,31.359,0,0,0,4.1-5C116.8,73.5,112.8,78.5,112.8,78.5Zm.2-24.8c.1.2,13,.1,13.1-.1s-3.1-.4-8-.4C114.5,53.2,112.8,53.4,113,53.7Zm3.8-6.5a9.619,9.619,0,0,0-1.2,1.5c0,.3.7-.4,1.8-1.5,3.3-3.6,5.4-7.1,4.8-8-.1-.3-.3.2-.6.8A24.1,24.1,0,0,1,116.8,47.2Zm0,31.3c-.6,3.3-.6,3.8.1,1.2.6-2.4,2.9-8.4,2.9-8.7,0,0-.8,1.2-.9,1.3A27.09,27.09,0,0,0,116.8,78.5ZM128.1,58a172.591,172.591,0,0,0-7.7,16.8c-.7,2.1-1.7,5.7-1.6,6.3,0,.5,0,.5.2-.1.1-.3.5-1.7.9-3a100.863,100.863,0,0,1,6.5-15.9c2-4,2.3-4.6,2.1-4.6S128.2,57.7,128.1,58Zm-3.8-17.9a21.614,21.614,0,0,1-3.9,6.5c-1.5,1.8-1.8,2.3-.7,1.2,1.7-1.8,4.9-6.4,4.9-8v-.2C124.5,39.6,124.4,39.8,124.3,40.1Zm1.6,26.5a82.283,82.283,0,0,0-5,13.8c-.7,2.8-.6,2.9.2.3A94.314,94.314,0,0,1,129,61a12.971,12.971,0,0,0,1.3-2.9C129.8,58.1,127.2,63.6,125.9,66.6ZM122,42.3c-.7,1.3-.5,1.3.3,0a9.063,9.063,0,0,0,1.3-3.4v-.1A28.366,28.366,0,0,0,122,42.3Zm3.8,15.5c-.4.6-.5.7-.4.3.3-1.1-1.9,3.1-3,5.6-.7,1.7-.2.8,1.1-1.8.7-1.5,1.4-2.7,1.4-2.7s-2.3,4.8-2.2,4.8c.4.4,2.7-4.5,3-5.1a4.221,4.221,0,0,0,.5-1.6C126.2,57.2,126,57.5,125.8,57.8Zm4.8-8.1c-1.5,2.3-2.1,3-1.4,3.1,0,0,1-1.4,2.1-3.1a115,115,0,0,1,7-9.4c1.1-1.4,2.1-2.6,2.1-2.6a9.281,9.281,0,0,0-2.4,2.2A95.285,95.285,0,0,0,130.6,49.7Zm11.7-9.5a42.226,42.226,0,0,0-3.4,4.1c-1,1.4-4.9,7.2-4.9,7.4,0,.4.5-.3,1.9-2.4a72.372,72.372,0,0,1,5.1-7.2c1.2-1.5,1.6-2,1.5-2C142.5,40,142.4,40.1,142.3,40.2Zm2.4-1.2c-1.4,1-4.9,5.3-7.6,9.3-1.1,1.6-1.9,3-1.9,3,0,.4.8-.5,2.6-3.2a62.9,62.9,0,0,1,6.3-8.2c.5-.6.7-1,.6-.9Zm-8.4,11.8c0,.2,1.2-.5,2.4-1.4a29.584,29.584,0,0,0,5.8-6.2c1.6-2.1,2.7-4.8,2.3-5.5-.2-.4-3.2,2.8-5.4,5.6A72.173,72.173,0,0,0,136.3,50.8Zm6-3.6a9.619,9.619,0,0,0-1.2,1.5c0,.3.7-.4,1.8-1.5,3.3-3.6,5.4-7.1,4.8-8-.1-.3-.3.2-.6.8A28.761,28.761,0,0,1,142.3,47.2Zm7.4-7.1a21.614,21.614,0,0,1-3.9,6.5c-1.5,1.8-1.8,2.3-.7,1.2,1.7-1.8,4.9-6.4,4.9-8v-.2C149.9,39.6,149.8,39.8,149.7,40.1Zm-2.3,2.2c-.7,1.3-.5,1.3.3,0a9.063,9.063,0,0,0,1.3-3.4v-.1C148.8,38.9,147.6,42,147.4,42.3Z"/><path class="a" d="M162,57.7a9,9,0,0,1,1.7,4.4c.2,1.2.3,1.5.5,1.4,1-.4,4.7-1.4,5.7-1.6a9.619,9.619,0,0,1,6.6,1.5,2.957,2.957,0,0,1,1.6,2.2c.1.6.1.8-.3,1.2-.2.3-.3.3-.3.2.2-.4-.1-.8-.3-.7-.5.3-.7.2-.7-.2,0-.6-.2-.6-.6.1-.4.6-.7.7-.8.1-.1-.5-.4-.8-.6-.5-.1.2-.2.2-.3-.1s-.3-.4-1.1-.4a62.315,62.315,0,0,0-9.2,2.2,1.381,1.381,0,0,1-.4.3,3.41,3.41,0,0,0-.7,1.6,36.586,36.586,0,0,1-6.5,12.3,12.744,12.744,0,0,1-4,3.5,3.287,3.287,0,0,1-2.2.5c-3-.1-4.5.5-7.4-2.4-.8-1.1-.9-1.8-1-4a11.776,11.776,0,0,1,.5-4.5,37.237,37.237,0,0,1,1.1-3.8c1.5-3.9,4-7.8,5.5-8.6.4-.2.6-.5.7-1.2a6.817,6.817,0,0,1,1.9-3.4,7.237,7.237,0,0,1,3.6-2,5.283,5.283,0,0,1,1.3-.1C158.4,55.6,161,56.5,162,57.7Zm-12.8,5.7a17.411,17.411,0,0,1-1.2,1.8c-2.2,3.1-4.5,8.7-4.7,12.1V78l.3-.8c.1-.5.6-1.8,1-2.9a59.832,59.832,0,0,1,3.8-8.4,8.532,8.532,0,0,0,1.1-2.5c0-.1,0-.1-.1-.1C149.3,63.2,149.3,63.3,149.2,63.4Zm-.9,6.6c-1.3,2.9-2.8,8.1-2.4,8.1a8.917,8.917,0,0,0,.7-2.1c.3-1.1.9-3.1,1.4-4.4a15.867,15.867,0,0,0,.8-2.5C148.7,69.1,148.5,69.4,148.3,70Zm1.2,2.6c-.4,1.2-.9,3.1-1.2,4.2s-.4,2.2-.5,2.4c-.1.3,0,.4,0,.4a20.989,20.989,0,0,0,.9-2.9,42.413,42.413,0,0,1,2.6-7.6,15.023,15.023,0,0,1,.9-2c.1-.1,0-.2-.1-.2C151.9,66.8,150.4,70.1,149.5,72.6Zm2.5-3.2a34.014,34.014,0,0,0-3.1,10.5c0,1.1,0,1.1.3.8a.914.914,0,0,1,.5-.3c.3,0,3.8-3.7,5.1-5.4,1.7-2.3,3.8-5.9,3.8-6.6a6.389,6.389,0,0,0-2.1-.4c-3.4-.4-3-.5-3.8,1.3a44.537,44.537,0,0,0-2.6,7.5c-.3,1.2-.6,1.9-.6,1.7,0-1.4,2-7.5,3.3-10.1.4-.7.4-1,.2-1C153.1,67.3,152.5,68.2,152,69.4Zm-.1-10.9a3.619,3.619,0,0,0-1.3,1.9c-.3,1.1-.3,1.1,0,1.1.1,0,.4-.4.6-.8a17.333,17.333,0,0,1,1.2-2c.5-.7.8-1.2.7-1.2A3.58,3.58,0,0,0,151.9,58.5Zm6.8,11.7a33.6,33.6,0,0,1-5.5,8.5c-1.3,1.5-.9,1.5.6,0a30.574,30.574,0,0,0,5.8-8.8c.5-1.3.6-1.7.3-1.8h0A7.505,7.505,0,0,0,158.7,70.2Zm-4-11a8.089,8.089,0,0,0-1.5,2.6c-.2.8.1.4.5-.5a10.191,10.191,0,0,1,.8-1.5q.75-.9.6-.9A1.381,1.381,0,0,1,154.7,59.2Zm2.7-1c-.9.1-1.1.2-1.9,1.1-1.3,1.4-1.7,2.4-1.6,3.5.1.7.2.8.4.7.3-.3.5,0,.3.7-.1.6-.1.7.2.6.2-.1.3,0,.4.3s.3.4,1.3.4a13.786,13.786,0,0,0,2.2-.2l.9-.2.1-1c.3-2.1-.3-4.8-1.1-5.5a1.292,1.292,0,0,0-.8-.2C157.7,58.1,157.6,58.1,157.4,58.2Zm4.4,12.1a35.5,35.5,0,0,1-5.2,9.6c-.4.6-.3.5.3-.2a29.851,29.851,0,0,0,1.8-2.4c1.7-2.5,4.2-8.5,4-9.2,0-.1,0-.1-.1-.1A16.136,16.136,0,0,0,161.8,70.3Zm-1.2-.9c-.2.7-1,2.3-1.6,3.6-1.2,2.5-1,2.6.3.3a27.239,27.239,0,0,0,2.1-5c0-.2,0-.3-.1-.3A5.4,5.4,0,0,0,160.6,69.4Z"/></g></svg>