<svg xmlns="http://www.w3.org/2000/svg" width="97.5" height="39.912" viewBox="0 0 97.5 39.912"><defs><style>.a{fill:#29aedd;}</style></defs><g transform="translate(-0.876 -19.031)"><path class="a" d="M16.619,21.544a9.481,9.481,0,0,1-.495,4.4c-.11.495-.22.88-.22.88a3.567,3.567,0,0,0,.55-1.21c.33-1.1,0,.165.055.22,0,0,.33-.385.715-.935a27.141,27.141,0,0,1,3.135-3.63c1.21-1.1,2.2-1.65,2.97-1.595a4.3,4.3,0,0,1,1.815.66c2.09,1.485,2.475,4.51,1.76,8.525-.935,5.445-3.025,11.055-5.39,14.409-1.265,1.76.165.165.88-.935a23.022,23.022,0,0,0,1.925-3.685c1.1-2.585,2.2-6.27,2.2-6.27,0,.165-.495,1.87-.77,2.86C24.593,38.923,23,42.223,21.4,43.983a6.381,6.381,0,0,1-2.31,1.7c-2.2,1.32-5.39.055-6.765-1.21a7.569,7.569,0,0,1-1.375-1.98c-.055-.165-.165-.33-.165-.385a73.764,73.764,0,0,0-3.52,8.965c-.22.6-1.595,4.565-1.595,4.565,0-.055.935-2.97,1.485-4.675.165-.55.33-.99.33-.99-.055-.055-.935,2.585-1.43,4.18a19.344,19.344,0,0,1-1.1,3.025c0-.11,0-.11-.055,0s-.055.11-.165-.055a.441.441,0,0,0-.77-.055c-.165.22-.275.275-.495.055-.99-.88-1.265-2.145-.715-4.455.6-2.64,1.32-4.565,3.63-9.955,3.575-8.525,5.39-13.145,7.04-17.819.66-1.925,1.1-3.63.88-3.63a32.268,32.268,0,0,0-2.8,3.3c-2.585,3.3-6.38,9.46-7.755,13.529a4.625,4.625,0,0,1-.22.55,17.892,17.892,0,0,1,.935-2.53,57.478,57.478,0,0,1,8.745-13.8,5.43,5.43,0,0,0,.495-.66,23.079,23.079,0,0,0-2.42,2.75,50.429,50.429,0,0,0-4.84,7.26,26.591,26.591,0,0,0-3.3,7.755c-.165.935-.22,1.265-.11,1.375a2.511,2.511,0,0,1,.275.77c0,.11-.22,0-.22.11,0,.165-.55-.11-.715-.055-.33.165-.6,0-.99-.55a2.634,2.634,0,0,1-.495-1.98c.055-2.145,1.155-4.95,3.41-8.965a38.21,38.21,0,0,1,4.455-6.6c2.42-2.86,3.9-4.18,5-4.455a3.126,3.126,0,0,1,2.75,1.32C16.509,20.774,16.564,20.939,16.619,21.544Zm-7.59,2.365a38.408,38.408,0,0,0-4.235,6.215c-.385.715-.77,1.375-.825,1.43a20.112,20.112,0,0,0-2.035,4.235,10.743,10.743,0,0,0-.55,2.145s.055-.165.165-.44a40.92,40.92,0,0,1,2.09-4.675,50.522,50.522,0,0,1,6.71-10.12c.715-.88,1.265-1.54,1.265-1.54A19.2,19.2,0,0,0,9.029,23.909ZM5.069,31.5a24.546,24.546,0,0,0-2.145,4.345,8.294,8.294,0,0,0-.77,2.365c0,.11.055.055.11-.165a32.057,32.057,0,0,1,3.08-6.875c.385-.715.66-1.21.66-1.21A13.4,13.4,0,0,0,5.069,31.5Zm3.63-4.51a64.565,64.565,0,0,0-3.96,6.765,24.9,24.9,0,0,0-1.925,4.895s.77-1.98,1.045-2.585a58.237,58.237,0,0,1,6.27-10.835c.275-.385.44-.66.44-.66A15.22,15.22,0,0,0,8.7,26.988Zm-1.43,14.9c-2.86,6.765-3.685,8.965-4.07,11.22-.275,1.485-.22,1.54.165.055A88.816,88.816,0,0,1,7.6,42.058c2.475-5.885,3.85-9.24,5.72-14.629a19.25,19.25,0,0,0,.935-3.025c.055-.22.33-1.21.22-1.265C12.164,29.848,10.459,34.3,7.269,41.893Zm4.455-10.56c-1.265,3.3-1.925,4.895-3.41,8.415-3.08,7.37-3.575,8.58-4.235,10.67-1.155,3.52-.11-.11.55-1.87.495-1.375,1.32-3.3,3.685-9.02,1.925-4.565,3.795-9.4,5.225-13.419a2.007,2.007,0,0,1,.275-.6C13.869,25.5,12.6,29.078,11.724,31.333ZM6.169,48a55.388,55.388,0,0,0-2.035,5.995c-.275,1.21-.165,1.045.22-.165.165-.6.385-1.375.495-1.7.33-.935,3.245-8.635,3.245-8.635C8.039,43.433,6.939,46.073,6.169,48Zm-.935,6.05a10.9,10.9,0,0,0,.44-1.87C5.4,52.233,3.8,59.6,5.234,54.047Zm5.445-12.76c-.055-.11-1.925,4.345-1.485,3.74C9.194,45.028,10.679,41.343,10.679,41.288Zm1.265-2.97h0c-.44.495-1.76,4.07-.385.99C11.779,38.758,11.944,38.318,11.944,38.318Zm2.695-12.1c-1.045,3.3-1.43,4.455-2.8,7.975a18.2,18.2,0,0,0-.715,1.87,9.749,9.749,0,0,0,.6-1.21c.88-1.98,2.365-6.27,3.08-8.58C15.3,24.569,15.409,23.689,14.639,26.219Zm-3.3,14.189c-.275.88.715-1.43.715-1.43s-1.155,3.135-.495,2.035c.44-.715.33.385.55.11.22-.22.275.495.44.495.055,0,.165.165.22.385a1.955,1.955,0,0,0,.77,1.1,2.79,2.79,0,0,0,2.2-.055c1.595-.6,3.135-2.475,4.675-5.83a57,57,0,0,0,3.575-11.11c.385-2.09.33-4.29-.165-4.455s-1.32.44-2.42,1.43C17.169,26.933,14.144,34.3,11.339,40.408Zm2.42-5.995c-.44.935-.495,1.21-.11.44a82.485,82.485,0,0,1,5.28-9.24c.385-.495.66-.935.33-.55A51.791,51.791,0,0,0,13.759,34.413Zm1.54-7.095c-.165.6-.385,1.43.055.275.22-.715.66-2.42.66-2.475C16.014,25.119,15.464,26.878,15.3,27.318Zm.825.165c-.495,1.21,0,.33.495-.495a39.7,39.7,0,0,1,2.695-3.74c.935-1.155,1.045-1.375.055-.275A21.632,21.632,0,0,0,16.124,27.483Zm7.37,3.96a46.407,46.407,0,0,1-2.64,6.655c-.495,1.1-.55,1.155-.385.935.385-.55,1.98-4.18,1.98-4.18.055.055-1.045,2.585-1.595,3.74a30.437,30.437,0,0,1-1.98,3.19c-.55.825-.6,1.045.165.22a19.28,19.28,0,0,0,3.135-5.995c.33-.88.33-1.155.715-2.255.275-.825.99-3.19.935-3.245A9.7,9.7,0,0,0,23.493,31.443Zm-.715,6.05c-.385.935-.88,1.925-1.76,3.63a20.6,20.6,0,0,0,2.915-6.6c.055-.275.165-.44.11-.495C24.043,34.028,22.943,37.108,22.778,37.493Zm2.31-3.135a34.064,34.064,0,0,1-3.465,7.7c-.165.275-.275.495-.275.495,0,.165.715-.825,1.21-1.7a26.413,26.413,0,0,0,1.65-3.575,17.4,17.4,0,0,0,.935-3.08A.241.241,0,0,0,25.088,34.358Z" transform="translate(0)"/><path class="a" d="M63.857,57.758a23.693,23.693,0,0,1-1.98,5c-.99,2.035-1.87,4.51-1.65,4.51.275,0,1.21-.825,2.97-2.64,1.815-1.87,3.025-3.135,5.335-5.83.825-.99.77-.495-.055.55-1.155,1.43-3.85,4.455-5.445,6.05-.66.66-1.155,1.21-1.155,1.21a8.617,8.617,0,0,0,1.155-1.045c1.21-1.155,3.19-3.245,5.225-5.61,1.21-1.43,1.65-1.815,1.43-1.375-.055.11-.275.715.055.275.22-.275.495-.33.495-.165,0,.275-.11.44-2.86,3.575-3.85,4.4-5.28,5.83-6.27,6.16a4.708,4.708,0,0,1-2.145,0,3.244,3.244,0,0,1-1.375-1.21,4.886,4.886,0,0,1-.11-2.75,22.724,22.724,0,0,1,2.2-5.555c.715-1.375,1.375-2.75,1.54-3.08a3.48,3.48,0,0,0,.385-1.21,3.816,3.816,0,0,0-1.375.99,59.5,59.5,0,0,0-6.875,9.46c-.6,1.045-1.21,2.035-1.375,2.255-.385.6-.44.715-.11.33a14.474,14.474,0,0,0,.88-1.265c1.925-3.135,2.42-3.85,3.52-5.445a45.21,45.21,0,0,1,3.465-4.4c.275-.22.275-.22,0,.11a72.3,72.3,0,0,0-6.1,8.635,18.763,18.763,0,0,1-2.53,3.74,2.219,2.219,0,0,1-2.75.11,2.469,2.469,0,0,1-1.1-1.87c-.11-.88,1.485-4.455,2.365-6.655.495-1.21,1.265-2.585,1.1-2.75-.33-.275-5.885,7.425-6.6,8.47-.99,1.43-2.915,3.41-4.95,1.925-1.045-.77-1.32-1.815-1.045-3.85a20.486,20.486,0,0,1,1.815-5.555c.66-1.265,1.595-2.53,1.815-2.31.385.33,1.21-.495.88.77a1.758,1.758,0,0,0-.055.385s.165-.22.33-.495c.275-.44.33-.495.495-.44.44.22.275.825-.495,2.64-1.21,2.475-2.145,5.61-2.09,6.93,0,.275,0,.275.055.11a27.454,27.454,0,0,1,2.09-6.82c.44-1.045.825-2.035.935-2.255.11-.385.11-.385.165-.11.055.385-.22,1.155-.99,2.97a29.12,29.12,0,0,0-1.595,4.62c-.275,1.32-.33,1.98-.22,1.98a11.58,11.58,0,0,0,2.09-2.2c.44-.55,1.54-1.98,2.42-3.245,2.86-3.9,3.795-5,4.675-5.39.825-.33,2.8.33,3.025,1.045a1.831,1.831,0,0,0,.165.33c.22.22.22.66.11,1.43a29.085,29.085,0,0,1-1.21,3.9c-.165.385-.275.715-.22.715.55-.6,1.65-2.42,2.31-3.3,2.255-3.19,4.95-6.27,5.885-6.655a3.31,3.31,0,0,1,3.08.66C64.242,54.9,64.352,56,63.857,57.758Zm-23.649,2.2a16.485,16.485,0,0,0-1.485,4.895c-.055,1.76.11.55.33-.385a53.688,53.688,0,0,1,2.695-7.26A11.932,11.932,0,0,0,40.208,59.957Zm-.33,5.665v.6l.165-.935a27.4,27.4,0,0,1,.88-3.52l.11-.44A14.593,14.593,0,0,0,39.878,65.622Zm2.255-12.21c-.055,0-.11-.11-.165-.165-.165-.275-.165-.275.385-1.375a11.377,11.377,0,0,0,.66-1.65c.165-.715.88-1.65.77-.6C43.618,50.443,42.408,53.413,42.133,53.413Zm.44,12.87a11.32,11.32,0,0,0,1.54-1.7c.385-.495,1.43-1.87,2.31-3.08.66-.88,3.355-4.29,3.245-4.4-.33-.33-4.675,6.05-6.27,8.085C43.013,65.677,42.628,66.172,42.573,66.282Zm1.87-17.049c.165,0,.275.44.495.275.165-.11.495.055.495.22a.176.176,0,0,0,.165.165.146.146,0,0,1,.165.165c0,.11.055.11.11.11.11-.055.22.165.22.77a6.345,6.345,0,0,1-1.155,3.025c-.165.11,0-.385.22-.935a4.173,4.173,0,0,0,.495-1.595c0-.11-.11.055-.22.33-.385,1.155-.88,1.815-1.32,1.87-.275.055-.275-.055-.11-.6.165-.495.165-.55-.055-.165-.22.33-.66,1.54-1.21.99-.055-.055-.055-.275.165-.66a14.611,14.611,0,0,0,.88-2.09c0-.11.55-1.76.55-1.815A.192.192,0,0,1,44.443,49.233Zm-.275,3.08c-.11.385.11.22.385-.55a5.842,5.842,0,0,0,.22-1.045v-.385A19.522,19.522,0,0,0,44.168,52.313Zm3.9,14.574c-.055.275-.055.275.11.11.22-.275.11-.495.275-.825.055-.165.6-1.43,1.21-2.8,1.925-4.565,2.145-5.225,1.925-5.61-.11-.165-.11-.165-.165,0C51.043,60.067,48.623,64.247,48.073,66.887ZM50,64.852c-.44,1.1-.55,1.54-.44,1.43.055-.055.6-1.485,1.32-3.245,1.32-3.3,1.815-4.73,1.65-5-.055-.11-.165.22-.33.66A55.109,55.109,0,0,1,50,64.852Zm.77,1.1a10.131,10.131,0,0,0,1.155-2.365,30.671,30.671,0,0,0,1.485-4.345c.11-.6-.165.11-.44,1.1C52.583,61.332,51.1,65.017,50.768,65.952Zm.385.495a4.268,4.268,0,0,0,.66-1.21c.055-.275.055-.22-.11-.055C51.483,65.512,51.043,66.447,51.153,66.447Zm1.595-2.75c-.99,1.98.165.165,1.045-1.21a59.474,59.474,0,0,1,5.775-7.48,3.735,3.735,0,0,0,.715-.88,21.459,21.459,0,0,0-2.97,3.135A44.014,44.014,0,0,0,52.748,63.7Zm5.28,1.43c-.11.55,0,.44.165-.165a12.825,12.825,0,0,1,.55-1.485c.165-.44.495-1.21.715-1.7,1.265-2.53,1.7-3.52,2.09-4.455.55-1.32.66-1.815.55-2.145-.055-.11-.055-.165-.11-.165,0,0-1.375,3.19-2.035,4.565A19.442,19.442,0,0,0,58.028,65.127Zm1.595-1.155a7.768,7.768,0,0,0-.495,1.485c-.22,1.1-.11,1.1.165,0a23.923,23.923,0,0,1,1.76-4.345,21.509,21.509,0,0,0,1.98-5.39c.055-.275-.22.385-.44.99C61.6,59.792,60.447,61.552,59.622,63.972Zm4.015-6.6c-.055,0-.11.22-.22.6a28.331,28.331,0,0,1-1.76,4.125,22.045,22.045,0,0,0-1.76,4.73c-.11.55.055.22.275-.495.385-1.43,2.8-6.435,3.19-7.755A8.978,8.978,0,0,0,63.637,57.373Z" transform="translate(-16.715 -13.555)"/><path class="a" d="M95.08,45.1c.055-.11-.055-.11-.55-.055a46.971,46.971,0,0,0-5.28.6c-.44.11-.715.165-.44-.11.275-.33,2.365-.66,5.775-.935,1.155-.11.99,0,2.365-1.98a43.706,43.706,0,0,1,5.335-6.71,12.213,12.213,0,0,1,2.8-1.925,1.83,1.83,0,0,1,1.1-.055c1.7.275,2.86,1.155,2.585,2.97a6.2,6.2,0,0,1-.935,2.365,20.343,20.343,0,0,1-3.575,4.235c-.99.715-.385.55.99.55.77,0,2.09,0,2.97.055,1.32.055,1.65.055,1.7-.055.055-.055.55-.825,1.155-1.65a44.2,44.2,0,0,1,5.17-6.49,12.213,12.213,0,0,1,2.8-1.925,1.443,1.443,0,0,1,1.1-.055c1.7.275,2.86,1.155,2.585,2.97a6.2,6.2,0,0,1-.935,2.365,20.343,20.343,0,0,1-3.575,4.235,8.622,8.622,0,0,1-2.53,1.32c-.715.22-.66.33.165.66,1.925.825,2.8,1.65,3.135,3.08a1.537,1.537,0,0,1-.55,1.76c-.6.385-.165-.11-.385-.11-.165,0-.165-.22-.055-.275.22-.11.055-.22-.22-.165-.33.055-.44-.11-.11-.275.22-.11.22-.385,0-.33s-.22-.055,0-.22c.22-.22.22-.275-.11-.495a13.445,13.445,0,0,0-3.85-1.155c-.88-.165-.88-.165-1.045,0a45.614,45.614,0,0,0-2.64,5.28,54.914,54.914,0,0,0-2.695,7.425c-.165.715-.33,1.1-.275.88.275-2.2,2.2-7.2,4.345-11.6.88-1.76,1.1-2.255.935-2.255a40.1,40.1,0,0,0-2.585,4.95,43.872,43.872,0,0,0-3.135,9.13c-.22,1.43-.055,2.915.385,2.915a8.3,8.3,0,0,0,2.475-1.375,60.916,60.916,0,0,0,7.315-7.535c3.795-4.455,4.015-4.73,4.235-4.73.165,0,0,.275-.44.77-2.585,3.025-5.665,6.71-7.04,8.195a17.037,17.037,0,0,0-1.54,1.76,78.381,78.381,0,0,0,5.335-5.775c.99-1.155,2.31-2.75,3.685-4.345.44-.495.66-.6.55-.33-.055.22,0,.22.275.055.22-.165.33-.11.275.11a27.723,27.723,0,0,1-2.31,3.025c-1.925,2.31-3.795,4.62-3.74,4.675,0,0,4.95-5.885,5.5-6.6.6-.77.825-.99.6-.66-.165.22-1.155,1.54-2.585,3.3-2.915,3.575-2.86,3.575-6.875,8.085a10.965,10.965,0,0,1-3.795,2.695,4.2,4.2,0,0,1-1.815.275,2.984,2.984,0,0,1-2.42-.66c-1.98-1.54-1.815-3.96-1.045-7.04.165-.77.33-1.265.33-1.265s-3.355,4.015-5.115,5.94a13.259,13.259,0,0,1-3.85,2.695,8.23,8.23,0,0,1-2.915.275A3.909,3.909,0,0,1,89.47,63.2a12.825,12.825,0,0,1,.055-4.345,48.928,48.928,0,0,1,3.9-10.065c.44-.88.825-1.65.825-1.7,0-.275-4.895.33-4.565,0,.055-.055,1.815-.22,1.87-.275a5.864,5.864,0,0,0-1.1,0c-1.1,0-1.1,0-1.1-.165s0-.22-.22-.22c-.165,0-.275-.055-.275-.11,0-.495,5.775-.99,6.215-.99C94.97,45.212,95.025,45.157,95.08,45.1Zm-.165,2.145c.055-.055,0-.11-.055-.11a7.9,7.9,0,0,0-.825,1.43,46.387,46.387,0,0,0-3.85,9.845c-.33,1.76-.33,2.09.055.66a32.336,32.336,0,0,1,1.1-3.245,59.583,59.583,0,0,1,3.74-8.25c.22-.385.33-.825.22-.825C95.245,46.807,94.915,47.247,94.915,47.247Zm-2.75,9.075a18.868,18.868,0,0,0-.935,3.52c0,.275,0,.275.11-.055.055-.165.275-.935.495-1.65a56.356,56.356,0,0,1,3.63-8.91,16.356,16.356,0,0,0,1.1-2.365,26.232,26.232,0,0,0-1.43,2.695C94.035,51.757,92.715,54.781,92.165,56.321Zm3.19-4.895c-.825,1.815-1.65,3.85-2.2,5.445a33,33,0,0,0-.99,3.795,7.592,7.592,0,0,0,.33-1.045,54.217,54.217,0,0,1,4.4-10.945,16.759,16.759,0,0,0,.935-1.98A36.88,36.88,0,0,0,95.355,51.427ZM99.04,46.7a.468.468,0,0,1-.275.165c-.11,0-.44.55-1.155,1.925a59.455,59.455,0,0,0-4.455,11.055c-.165.715-.33,1.1-.275.88a36.169,36.169,0,0,1,1.87-6.1c.825-2.09,1.485-3.575,2.585-5.775.935-1.87,1.045-2.145.935-2.145a36.979,36.979,0,0,0-2.64,5.115c-2.53,5.72-3.685,10.12-3.025,11.715.165.44.275.44,1.155-.055.385-.22,1.1-.66,1.595-.99a67.187,67.187,0,0,0,7.425-7.645c.88-1.045,1.98-2.31,2.42-2.8a13.4,13.4,0,0,0,1.925-3.19,22.06,22.06,0,0,0,1.045-2.31c-.055-.055-2.09-.055-4.565-.055C99.7,46.587,99.15,46.587,99.04,46.7Zm1.65-8.14a49.688,49.688,0,0,0-3.96,5.665c.165.165.385-.11,1.43-1.65a63.246,63.246,0,0,1,3.85-5.17c.6-.77,1.155-1.43,1.155-1.43s0-.055-.055,0A12.549,12.549,0,0,0,100.689,38.557Zm2.2,16.884c-.55.66-4.895,5.61-4.895,5.61a16.061,16.061,0,0,0,1.485-1.485c1.87-1.98,2.42-2.64,4.235-4.785,1.485-1.815,1.87-2.365,1.76-2.365S105.089,52.8,102.889,55.441Zm1.32-18.094a23.226,23.226,0,0,0-1.87,2.255c-.55.77-2.695,3.96-2.695,4.07,0,.22.275-.165,1.045-1.32a39.806,39.806,0,0,1,2.8-3.96c.66-.825.88-1.1.825-1.1C104.264,37.237,104.264,37.292,104.209,37.347Zm1.32-.66a28.612,28.612,0,0,0-4.18,5.115c-.6.88-1.045,1.65-1.045,1.65,0,.22.44-.275,1.43-1.76a34.592,34.592,0,0,1,3.465-4.51,4.985,4.985,0,0,0,.33-.495Zm.165,9.515h-4.84l3.3.055c1.815,0,3.52.055,3.795.055.495,0,.495,0,.165-.055C107.949,46.257,106.959,46.2,105.694,46.2Zm-4.785-3.025c0,.11.66-.275,1.32-.77a16.271,16.271,0,0,0,3.19-3.41c.88-1.155,1.485-2.64,1.265-3.025-.11-.22-1.76,1.54-2.97,3.08A39.694,39.694,0,0,0,100.909,43.177Zm1.045,15.234a17.247,17.247,0,0,0,2.255-2.75C104.154,55.661,101.954,58.411,101.954,58.411Zm.11-13.639c.055.11,7.15.055,7.2-.055a20.544,20.544,0,0,0-4.4-.22C102.889,44.5,101.954,44.607,102.064,44.772Zm2.09-3.575a5.29,5.29,0,0,0-.66.825c0,.165.385-.22.99-.825,1.815-1.98,2.97-3.9,2.64-4.4-.055-.165-.165.11-.33.44A13.253,13.253,0,0,1,104.154,41.2Zm0,17.214c-.33,1.815-.33,2.09.055.66.33-1.32,1.595-4.62,1.595-4.785,0,0-.44.66-.495.715A14.9,14.9,0,0,0,104.154,58.411Zm6.215-11.275a94.923,94.923,0,0,0-4.235,9.24,18.424,18.424,0,0,0-.88,3.465c0,.275,0,.275.11-.055.055-.165.275-.935.495-1.65a55.473,55.473,0,0,1,3.575-8.745c1.1-2.2,1.265-2.53,1.155-2.53S110.424,46.972,110.369,47.137Zm-2.09-9.845a11.887,11.887,0,0,1-2.145,3.575c-.825.99-.99,1.265-.385.66.935-.99,2.695-3.52,2.695-4.4v-.11C108.389,37.017,108.334,37.127,108.279,37.292Zm.88,14.574a45.255,45.255,0,0,0-2.75,7.59c-.385,1.54-.33,1.595.11.165a51.871,51.871,0,0,1,4.345-10.835,7.134,7.134,0,0,0,.715-1.595C111.3,47.192,109.874,50.217,109.159,51.867ZM107.014,38.5c-.385.715-.275.715.165,0a4.985,4.985,0,0,0,.715-1.87v-.055A15.6,15.6,0,0,0,107.014,38.5Zm2.09,8.525c-.22.33-.275.385-.22.165.165-.6-1.045,1.7-1.65,3.08-.385.935-.11.44.6-.99.385-.825.77-1.485.77-1.485s-1.265,2.64-1.21,2.64c.22.22,1.485-2.475,1.65-2.8a2.322,2.322,0,0,0,.275-.88C109.324,46.7,109.214,46.862,109.1,47.027Zm2.64-4.455c-.825,1.265-1.155,1.65-.77,1.7,0,0,.55-.77,1.155-1.7a63.245,63.245,0,0,1,3.85-5.17c.6-.77,1.155-1.43,1.155-1.43a5.1,5.1,0,0,0-1.32,1.21A52.406,52.406,0,0,0,111.744,42.572Zm6.435-5.225a23.224,23.224,0,0,0-1.87,2.255c-.55.77-2.695,3.96-2.695,4.07,0,.22.275-.165,1.045-1.32a39.8,39.8,0,0,1,2.8-3.96c.66-.825.88-1.1.825-1.1C118.289,37.237,118.234,37.292,118.179,37.347Zm1.32-.66a28.612,28.612,0,0,0-4.18,5.115c-.6.88-1.045,1.65-1.045,1.65,0,.22.44-.275,1.43-1.76a34.59,34.59,0,0,1,3.465-4.51c.275-.33.385-.55.33-.495Zm-4.62,6.49c0,.11.66-.275,1.32-.77a16.271,16.271,0,0,0,3.19-3.41c.88-1.155,1.485-2.64,1.265-3.025-.11-.22-1.76,1.54-2.97,3.08A39.692,39.692,0,0,0,114.879,43.177Zm3.3-1.98a5.29,5.29,0,0,0-.66.825c0,.165.385-.22.99-.825,1.815-1.98,2.97-3.9,2.64-4.4-.055-.165-.165.11-.33.44A15.818,15.818,0,0,1,118.179,41.2Zm4.07-3.9a11.887,11.887,0,0,1-2.145,3.575c-.825.99-.99,1.265-.385.66.935-.99,2.695-3.52,2.695-4.4v-.11C122.359,37.017,122.3,37.127,122.249,37.292Zm-1.265,1.21c-.385.715-.275.715.165,0a4.984,4.984,0,0,0,.715-1.87v-.055C121.754,36.632,121.094,38.337,120.984,38.5Z" transform="translate(-39.522 -6.674)"/><path class="a" d="M152.849,56.8a4.951,4.951,0,0,1,.935,2.42c.11.66.165.825.275.77.55-.22,2.585-.77,3.135-.88a5.29,5.29,0,0,1,3.63.825,1.626,1.626,0,0,1,.88,1.21c.055.33.055.44-.165.66-.11.165-.165.165-.165.11.11-.22-.055-.44-.165-.385-.275.165-.385.11-.385-.11,0-.33-.11-.33-.33.055-.22.33-.385.385-.44.055-.055-.275-.22-.44-.33-.275-.055.11-.11.11-.165-.055s-.165-.22-.6-.22a34.271,34.271,0,0,0-5.06,1.21.759.759,0,0,1-.22.165,1.875,1.875,0,0,0-.385.88A20.122,20.122,0,0,1,149.714,70a7.009,7.009,0,0,1-2.2,1.925,1.808,1.808,0,0,1-1.21.275c-1.65-.055-2.475.275-4.07-1.32a3.31,3.31,0,0,1-.55-2.2,6.477,6.477,0,0,1,.275-2.475,20.479,20.479,0,0,1,.6-2.09c.825-2.145,2.2-4.29,3.025-4.73.22-.11.33-.275.385-.66a3.749,3.749,0,0,1,1.045-1.87,3.98,3.98,0,0,1,1.98-1.1,2.905,2.905,0,0,1,.715-.055A4.347,4.347,0,0,1,152.849,56.8Zm-7.04,3.135a9.573,9.573,0,0,1-.66.99,15.85,15.85,0,0,0-2.585,6.655v.385l.165-.44c.055-.275.33-.99.55-1.595a32.908,32.908,0,0,1,2.09-4.62,4.693,4.693,0,0,0,.6-1.375c0-.055,0-.055-.055-.055C145.864,59.821,145.864,59.876,145.809,59.931Zm-.495,3.63c-.715,1.595-1.54,4.455-1.32,4.455a4.9,4.9,0,0,0,.385-1.155c.165-.6.495-1.7.77-2.42a8.727,8.727,0,0,0,.44-1.375C145.534,63.066,145.424,63.231,145.314,63.561Zm.66,1.43c-.22.66-.495,1.7-.66,2.31s-.22,1.21-.275,1.32c-.055.165,0,.22,0,.22a11.542,11.542,0,0,0,.495-1.595,23.326,23.326,0,0,1,1.43-4.18,8.262,8.262,0,0,1,.495-1.1c.055-.055,0-.11-.055-.11A14.685,14.685,0,0,0,145.974,64.991Zm1.375-1.76a18.707,18.707,0,0,0-1.7,5.775c0,.6,0,.6.165.44a.5.5,0,0,1,.275-.165,22.157,22.157,0,0,0,2.8-2.97,15.069,15.069,0,0,0,2.09-3.63,3.514,3.514,0,0,0-1.155-.22c-1.87-.22-1.65-.275-2.09.715A24.494,24.494,0,0,0,146.3,67.3c-.165.66-.33,1.045-.33.935a23.788,23.788,0,0,1,1.815-5.555c.22-.385.22-.55.11-.55C147.954,62.076,147.624,62.571,147.349,63.231Zm-.055-5.995a1.991,1.991,0,0,0-.715,1.045c-.165.6-.165.6,0,.6.055,0,.22-.22.33-.44a9.533,9.533,0,0,1,.66-1.1c.275-.385.44-.66.385-.66A1.969,1.969,0,0,0,147.294,57.237Zm3.74,6.435a18.478,18.478,0,0,1-3.025,4.675c-.715.825-.495.825.33,0a16.815,16.815,0,0,0,3.19-4.84c.275-.715.33-.935.165-.99h0A4.128,4.128,0,0,0,151.034,63.671Zm-2.2-6.05a4.449,4.449,0,0,0-.825,1.43c-.11.44.055.22.275-.275a5.6,5.6,0,0,1,.44-.825q.412-.495.33-.495A.759.759,0,0,1,148.834,57.622Zm1.485-.55c-.495.055-.6.11-1.045.6a2.423,2.423,0,0,0-.88,1.925c.055.385.11.44.22.385.165-.165.275,0,.165.385-.055.33-.055.385.11.33.11-.055.165,0,.22.165s.165.22.715.22a7.582,7.582,0,0,0,1.21-.11l.495-.11.055-.55a4.306,4.306,0,0,0-.6-3.025.711.711,0,0,0-.44-.11C150.484,57.017,150.429,57.017,150.319,57.072Zm2.42,6.655a19.525,19.525,0,0,1-2.86,5.28c-.22.33-.165.275.165-.11a16.411,16.411,0,0,0,.99-1.32c.935-1.375,2.31-4.675,2.2-5.06,0-.055,0-.055-.055-.055A8.874,8.874,0,0,0,152.739,63.726Zm-.66-.495c-.11.385-.55,1.265-.88,1.98-.66,1.375-.55,1.43.165.165a14.981,14.981,0,0,0,1.155-2.75c0-.11,0-.165-.055-.165A2.971,2.971,0,0,0,152.079,63.231Z" transform="translate(-63.358 -16.499)"/></g></svg>