<svg xmlns="http://www.w3.org/2000/svg" width="419" height="634" viewBox="0 0 419 634"><defs><style>.a{fill:#29aedd;}</style></defs><g transform="translate(6 -223)"><path class="a" d="M-1069,373h-277V130h277v7h-.016a110.731,110.731,0,0,0-22.153,2.234,109.446,109.446,0,0,0-20.648,6.41,110.007,110.007,0,0,0-18.685,10.142,110.788,110.788,0,0,0-16.28,13.432,110.778,110.778,0,0,0-13.432,16.28,110.016,110.016,0,0,0-10.142,18.685,109.456,109.456,0,0,0-6.41,20.648A110.807,110.807,0,0,0-1179,247a110.81,110.81,0,0,0,2.235,22.169,109.459,109.459,0,0,0,6.41,20.648,110.014,110.014,0,0,0,10.142,18.685,110.788,110.788,0,0,0,13.432,16.28,110.787,110.787,0,0,0,16.28,13.432,110.01,110.01,0,0,0,18.685,10.142,109.448,109.448,0,0,0,20.648,6.41A110.808,110.808,0,0,0-1069,357v16Z" transform="translate(1340 293)"/><path class="a" d="M268.016,206.974V207H3V0H268.016V.026C268.791.009,269.572,0,270.351,0a103.5,103.5,0,1,1,0,207C269.572,207,268.791,206.991,268.016,206.974Z" transform="translate(-9 650)"/><path class="a" d="M264.283,206.974V207H-50V0H264.283V.026C265.049.009,265.821,0,266.591,0,323.15,0,369,46.338,369,103.5S323.15,207,266.591,207C265.821,207,265.049,206.991,264.283,206.974Z" transform="translate(44 223)"/></g></svg>